<svg xmlns="http://www.w3.org/2000/svg" width="48" height="48" viewBox="0 0 48 48">
  <g id="icone-codepen" transform="translate(-1122 -2372)">
    <g id="Ellipse_10" data-name="Ellipse 10" transform="translate(1122 2372)" fill="#cda112" stroke="#cda112" stroke-width="3">
      <circle cx="24" cy="24" r="24" stroke="none"/>
      <circle cx="24" cy="24" r="22.5" fill="none"/>
    </g>
    <path id="codepen" d="M32.5,10.289a1.033,1.033,0,0,0-.487-.868C16.514.229,16.733-.456,15.728.152,3.982,7.453.713,9.082.243,9.65c-.426.437-.231,1.107-.231,11.233C-.017,22.035,10.493,28.277,15.6,32.259a1.089,1.089,0,0,0,1.358-.039C32.156,21.45,32.525,21.883,32.5,20.883c0,0-.016-10.731,0-10.594Zm-2.03,8.787-5.247-3.193,5.247-3.651Zm-7.143-4.348-6.055-3.685V2.826l12.354,7.52Zm-7.07,4.918-5.247-3.651L16.256,12.8,21.5,15.995ZM15.24,2.825v8.222c-2.354,1.461-4.344,2.68-6.025,3.7l-6.328-4.4ZM7.312,15.9c-2.537,1.526-4.194,2.495-5.27,3.141V12.232Zm1.8,1.251,6.128,4.263v8.121L2.887,20.938Zm8.159,12.385V21.414L23.4,17.151l6.226,3.789Z" transform="translate(1130.033 2380.011)" fill="#252525"/>
  </g>
</svg>
