<?xml version="1.0" encoding="UTF-8" standalone="no"?>
<svg
   xmlns:dc="http://purl.org/dc/elements/1.1/"
   xmlns:cc="http://creativecommons.org/ns#"
   xmlns:rdf="http://www.w3.org/1999/02/22-rdf-syntax-ns#"
   xmlns:svg="http://www.w3.org/2000/svg"
   xmlns="http://www.w3.org/2000/svg"
   xmlns:sodipodi="http://sodipodi.sourceforge.net/DTD/sodipodi-0.dtd"
   xmlns:inkscape="http://www.inkscape.org/namespaces/inkscape"
   width="48"
   height="46.816"
   viewBox="0 0 48 46.816"
   version="1.1"
   id="svg3"
   sodipodi:docname="icone-github-hover.svg"
   inkscape:version="0.92.4 (5da689c313, 2019-01-14)">
  <metadata
     id="metadata9">
    <rdf:RDF>
      <cc:Work
         rdf:about="">
        <dc:format>image/svg+xml</dc:format>
        <dc:type
           rdf:resource="http://purl.org/dc/dcmitype/StillImage" />
        <dc:title />
      </cc:Work>
    </rdf:RDF>
  </metadata>
  <defs
     id="defs7" />
  <sodipodi:namedview
     pagecolor="#ffffff"
     bordercolor="#666666"
     borderopacity="1"
     objecttolerance="10"
     gridtolerance="10"
     guidetolerance="10"
     inkscape:pageopacity="0"
     inkscape:pageshadow="2"
     inkscape:window-width="1600"
     inkscape:window-height="837"
     id="namedview5"
     showgrid="false"
     inkscape:zoom="5.0410114"
     inkscape:cx="-12.599798"
     inkscape:cy="23.408001"
     inkscape:window-x="-8"
     inkscape:window-y="-8"
     inkscape:window-maximized="1"
     inkscape:current-layer="svg3" />
  <path
     id="icone-github"
     d="M24,0a24,24,0,0,0-7.586,46.774C17.612,47,18,46.252,18,45.62V41.152C11.324,42.6,9.934,38.32,9.934,38.32c-1.092-2.774-2.666-3.512-2.666-3.512-2.178-1.49.166-1.458.166-1.458a5.038,5.038,0,0,1,3.678,2.474c2.14,3.668,5.614,2.608,6.984,1.994A5.092,5.092,0,0,1,19.62,34.61C14.29,34,8.686,31.942,8.686,22.748a9.289,9.289,0,0,1,2.472-6.442,8.633,8.633,0,0,1,.234-6.352s2.016-.644,6.6,2.46a22.748,22.748,0,0,1,12.018,0c4.582-3.1,6.594-2.46,6.594-2.46a8.624,8.624,0,0,1,.236,6.352,9.264,9.264,0,0,1,2.47,6.442C39.312,31.966,33.7,34,28.354,34.59A5.737,5.737,0,0,1,30,39.034V45.62c0,.638.384,1.388,1.6,1.152A24,24,0,0,0,24,0Z"
     fill="#cda112"
     style="fill:#ffffff;fill-opacity:1" />
</svg>
