<svg xmlns="http://www.w3.org/2000/svg" width="63" height="63" viewBox="0 0 63 63">
  <g id="logo" transform="translate(-41.11 -56.054)">
    <circle id="Borda-logo-branco" cx="30" cy="30" r="30" stroke-width="3" transform="translate(42.61 57.554)" stroke="#cda112" stroke-linecap="round" stroke-linejoin="bevel" fill="#fff"/>
    <g id="Rosto-logo" transform="translate(46.827 63.349)">
      <path id="path3752" d="M87.7,69.745a.26.26,0,0,0-.16.133,1.481,1.481,0,0,1-.479.326c-.848.4-.961.483-.9.642.035.091.016.135-.042.1s-.18.074-.271.245-.221.31-.288.31a.584.584,0,0,0-.3.22c-.1.121-.145.149-.1.063s.024-.157-.043-.157a.2.2,0,0,0-.17.14c-.055.165-.729.265-.729.108a.262.262,0,0,1,.126-.185c.28-.173.1-.282-.314-.189-.376.085-.44.067-.44-.126a.336.336,0,0,0-.189-.3c-.1-.04-.189-.018-.189.049a.137.137,0,0,0,.147.122c.081,0,.11.036.066.081s-.165.011-.267-.074a.312.312,0,0,0-.309-.079c-.142.088-1.057-.362-1.279-.629s-.9-.215-1.578.146a7.886,7.886,0,0,0-.746.433c-.3.246-3.548.624-3.407.4.034-.055-.1-.089-.308-.075s-.371-.037-.371-.119-.057-.06-.124.044q-.122.189-.124.031c0-.086-.151-.157-.333-.157a3.463,3.463,0,0,1-.8-.14.881.881,0,0,0-.88.094,6.465,6.465,0,0,0-1.06.663c-.111.092-.2.13-.2.084s-.071-.023-.157.051a6.226,6.226,0,0,1-2.233,1.258c-.519.16-1.057.334-1.195.386a5.614,5.614,0,0,0-2.309,1.212c-.574.55-1.116.781-.756.322.155-.2.151-.2-.04-.054a.343.343,0,0,0-.136.367c.049.127.026.169-.061.115-.148-.092-.218.077-.356.849-.051.285-.039.46.027.419s.113.174.112.473-.04.52-.087.492c-.085-.052-.3.684-.253.866a1.284,1.284,0,0,1-.171.478,1.016,1.016,0,0,0-.119.625c.044.139.019.245-.057.245-.129,0-.111.575.049,1.6a1.851,1.851,0,0,1-.12.839,8.394,8.394,0,0,0,.081,3.979c.276.875.325.947.675.986a4.358,4.358,0,0,1,1.111.432,2.271,2.271,0,0,0,1.285.36c.736-.038,1.3.262,1.4.743.041.2.125.372.187.372s.079-.134.038-.3c-.058-.23-.016-.313.186-.366.235-.061.261-.013.261.486,0,.3-.05.554-.111.554s-.141.113-.177.252h0c-.047.178,0,.252.147.252s.222-.114.239-.319a1.5,1.5,0,0,1,.625-1.117,1.419,1.419,0,0,1,.536-.019c1.249.2,5.157.617,5.216.556a3.577,3.577,0,0,0,.08-.971c-.009-.113-.12-.152-.324-.113-.171.033-.286.02-.256-.029s-.263-.1-.651-.111a3.416,3.416,0,0,1-.813-.09c-.059-.037-.109.008-.11.1,0,.118-.028.124-.094.019a7.145,7.145,0,0,0-1.905-.314l-1.813-.169-.147-.5c-.116-.4-.162-.45-.217-.252s-.075.16-.09-.126l-.02-.377-.159.373c-.212.5-.314.284-.269-.561s.032-.788.194-.688c.09.056.084.139-.018.262-.082.1-.106.222-.052.272s.124.02.155-.068a1.172,1.172,0,0,1,.55-.557c.078-.026.165-.215.193-.42s.069-.5.091-.66a.857.857,0,0,1,.2-.44c.129-.12.146-.119.076,0-.051.091-.019.157.076.156s.289-.219.441-.485c.215-.376.243-.518.126-.636s-.1-.131.1-.057c.221.084.228.073.063-.105s-.2-.175-.331.069a.512.512,0,0,0-.081.374c.036.058-.054.031-.2-.06-.3-.189-.359-.42-.076-.311.1.04.189.024.189-.036s-.085-.141-.189-.181S70,82.636,70,82.707s-.051.1-.114.059-.052-.2.031-.384c.164-.354.4-.434.284-.1-.064.183-.045.179.113-.024a.869.869,0,0,0,.187-.377c0-.073-.057-.048-.124.056-.1.161-.122.157-.124-.031,0-.121-.052-.22-.114-.22s-.146-.088-.187-.2-.022-.163.042-.123.108-.042.1-.182a.394.394,0,0,0-.244-.326c-.24-.076-.315-.432-.092-.432.073,0,.1-.054.059-.12s.083-.205.276-.309.266-.194.161-.2c-.154-.007-.149-.039.029-.175.12-.091.181-.2.136-.248s.016-.082.135-.082.182-.057.139-.126-.032-.13.024-.135.2-.028.312-.05c.135-.026.265.091.362.327.159.383.428.657.288.293-.048-.125.051-.077.247.119a.95.95,0,0,0,1.156.2c.225-.1.217-.109-.084-.117-.429-.011-.734-.128-.734-.281,0-.066.057-.085.126-.042s.126-.015.126-.129.071-.181.157-.149a.21.21,0,0,1,.124.231c-.018.1.076.046.209-.11a.785.785,0,0,1,.458-.283,1.691,1.691,0,0,0,.63-.256c.48-.3.711-.124.244.182-.172.113-.313.167-.313.12s-.108.039-.24.191-.259.219-.283.149-.111-.084-.232-.007c-.16.1-.154.12.039.122.125,0,.2.053.157.116s.042.085.18.049.22-.115.183-.175.019-.077.126-.036a.2.2,0,0,0,.271-.127c.042-.111.142-.164.221-.119s.1.037.053-.018c-.149-.165.543-.881.878-.908a1.038,1.038,0,0,0,.526-.22c.281-.254.432-.249.332.011-.063.163-.043.177.092.064.094-.078.218-.1.275-.049s.059.016,0-.077c-.078-.135-.017-.153.294-.084.261.057.393.038.393-.057,0-.079-.057-.108-.126-.065s-.126.02-.126-.051c0-.171.4-.37.6-.3a.134.134,0,0,1,.07.2c-.048.081.014.064.137-.036.216-.175.215-.187-.007-.274-.186-.073-.163-.093.114-.1a.936.936,0,0,0,.62-.323.905.905,0,0,1,.432-.314.528.528,0,0,0,.323-.22c.18-.241.856-.378.856-.173,0,.07.111.106.245.08a.834.834,0,0,1,.549.192,2.158,2.158,0,0,0,.832.324c.547.087.945.361.82.563-.039.064-.008.116.069.116s.106.057.063.126.006.126.108.126a.249.249,0,0,1,.231.136c.032.095.147.089.383-.018.283-.129.316-.193.207-.4-.072-.134-.1-.277-.058-.317s.073-.02.073.044.212.108.471.1a.848.848,0,0,1,.574.124c.058.082.069.007.025-.169-.069-.278-.058-.29.091-.107a1.024,1.024,0,0,0,.6.249c.334.031.606.21,1.166.767.4.4.695.784.651.855s-.033.114.024.095a.105.105,0,0,1,.135.06,1.658,1.658,0,0,0,.288.351c.141.141.222.312.179.38s0,.109.09.09.152.036.135.123.025.157.093.157c.194,0,.468.772.619,1.74.232,1.495.615,2.159.478.828-.059-.567-.039-.689.1-.635.12.046.15,0,.1-.136s-.027-.172.056-.12.166,0,.2-.1a.23.23,0,0,0-.069-.27c-.085-.052-.1-.029-.05.059s.025.145-.054.145-.118-.071-.086-.157a.183.183,0,0,1,.192-.128c.187.041.666-.6.568-.755-.047-.076-.019-.093.066-.04s.175-.048.226-.305c.056-.279.11-.347.185-.228.087.138.107.137.108-.005s.038-.142.19-.016c.234.194.235.139.012-.392a.707.707,0,0,1-.016-.738,1.092,1.092,0,0,0,.126-.528c-.021-.134.029-.187.137-.146.165.063.262-.168.326-.775a1.617,1.617,0,0,0-.625-1.251,1.093,1.093,0,0,1-.461-.4c-.121-.185-.284-.291-.387-.251s-.236-.041-.31-.179c-.123-.229-.089-.247.459-.247.756,0,.669-.1-.123-.142a1.661,1.661,0,0,1-.846-.242,2.048,2.048,0,0,1-.3-1.59.74.74,0,0,0,.074-.337c-.014-.06.067-.075.179-.031a1.186,1.186,0,0,0,.327.078c.068,0,.094.047.058.1s0,.1.087.1.156-.18.161-.412c.007-.336-.027-.392-.189-.307a.716.716,0,0,1-1.019-.308c-.106-.208-.3-.533-.423-.722a.8.8,0,0,1-.153-.566c.065-.188.049-.184-.111.021-.1.133-.222.208-.265.165s-.213-.025-.379.038c-.393.15-.374.029.081-.5a1.539,1.539,0,0,0,.372-.66c0-.156-.074-.235-.162-.219ZM73.413,71.123c.352,0,.172.239-.34.453-.6.25-.669.213-.265-.143A1.218,1.218,0,0,1,73.413,71.123Zm12.761.5c.031,0,.055.057.055.126a.13.13,0,0,1-.133.126c-.073,0-.1-.057-.056-.126S86.143,71.626,86.174,71.626Zm1.449.047c.088.008.163.071.3.2.154.144.306.236.338.2s.055.106.05.307c-.015.606-.2.6-.594-.014-.161-.254-.284-.316-.532-.268-.436.083-.406-.044.068-.289A.782.782,0,0,1,87.623,71.673Zm-.282.614c.127.01.231.091.231.181,0,.172-.047.184-.3.08C87.027,72.452,87.079,72.268,87.34,72.288Zm.743,1.758c.157.018.536.346.536.493,0,.058-.085.106-.189.106-.17,0-.244-.149-.2-.409.008-.052-.051-.094-.132-.094s-.109-.037-.064-.083A.061.061,0,0,1,88.083,74.046Zm3.288.992a.8.8,0,0,0-.2.023c-.122.032-.053.06.155.063s.308-.024.223-.058A.516.516,0,0,0,91.371,75.038Zm-26.489.8c.048,0,.067.1.061.3-.013.463-.051.492-.166.13a.438.438,0,0,1,.046-.395A.1.1,0,0,1,64.882,75.838Zm19.254,1.618c-.019,0-.032.043-.036.135-.005.133.024.207.066.165a.253.253,0,0,0,.01-.241c-.015-.038-.029-.057-.04-.059ZM69.7,82.13a.15.15,0,0,1,.126.082c.056.09.035.111-.056.056s-.128,0-.092.2a.951.951,0,0,0,.079.291,1.044,1.044,0,0,1,.046.319c.015.235-.041.319-.214.319a.4.4,0,0,1-.3-.1c-.034-.054.013-.1.1-.1.109,0,.119-.033.03-.094-.2-.134-.324-.536-.159-.5a.2.2,0,0,0,.2-.145c.039-.107.008-.141-.079-.087s-.142.058-.142.022.11-.124.244-.2a.432.432,0,0,1,.208-.067Zm-.636.113a.034.034,0,0,1,.034.009c.039.039,0,.14-.086.226-.124.123-.139.109-.071-.07.035-.093.084-.155.122-.165Zm1.927.1c-.061,0-.108.068-.108.169s.061.189.135.165a.168.168,0,0,0,0-.329.09.09,0,0,0-.027,0Zm-3.333.048a.3.3,0,0,1,.13.085c.1.089.153.2.127.243s.03.112.128.149c.14.054.152.178.055.607a4.589,4.589,0,0,1-.146.559,2.786,2.786,0,0,1-.339.1c-.173.043-.241.044-.151,0,.131-.059.124-.134-.03-.37-.106-.162-.142-.327-.079-.366s.09-.272.059-.519c-.035-.284-.009-.419.072-.369s.128.017.128-.059c0-.044.016-.065.045-.06Zm1.849.31a.13.13,0,0,0-.133.126c0,.069.025.126.056.126s.09-.057.133-.126S69.58,82.7,69.507,82.7Zm-.495.126c.105,0,.161.2.12.422a.431.431,0,0,0,.113.268c.1.118.074.176-.093.219-.186.049-.228-.025-.238-.425C68.908,83.039,68.952,82.821,69.012,82.821Zm-1.463.671c-.1,0-.148.047-.113.1s.086.1.113.1.077-.047.113-.1S67.647,83.492,67.549,83.492Zm2.143.134a.034.034,0,0,1,.034.009c.039.039,0,.14-.086.226-.124.123-.139.109-.071-.07.035-.093.084-.156.122-.165Zm-.356.458a1.447,1.447,0,0,1-.023.5c-.043.311-.085.636-.093.722a.159.159,0,0,1-.132.157c-.065,0-.079-.1-.031-.22a3.529,3.529,0,0,0,.143-.654,1.518,1.518,0,0,1,.124-.5s.009-.005.012,0Zm-1.771.295c.04,0,.072.072.113.236a1.042,1.042,0,0,1,.019.5c-.036.089-.07.032-.075-.128s-.067-.256-.136-.213c-.156.1-.16-.066-.007-.308C67.514,84.409,67.541,84.38,67.565,84.379Zm.369.329a.691.691,0,0,1,.181.252c.074.139.083.252.019.252s-.145-.113-.181-.252S67.908,84.708,67.934,84.708Zm.806,0c.067,0,.089.085.05.189s-.095.189-.122.189-.05-.085-.05-.189S68.673,84.708,68.74,84.708Zm11.18.394a.39.39,0,0,0-.255.082c-.079.079,0,.1.234.05.263-.054.295-.085.122-.122a.468.468,0,0,0-.1-.01Zm.609.052a.432.432,0,0,0-.284.066,1.883,1.883,0,0,1-.536.238c-.295.085-.367.072-.318-.056a.2.2,0,0,0-.04-.228c-.057-.035-.115.109-.131.319s.008.347.051.3.155-.016.248.061c.125.1.169.1.169,0s.114-.069.314.062a1.072,1.072,0,0,0,.713.147,1.415,1.415,0,0,1,1.084.324c1.006.093.572.17,1.524.405.308,0,.437-.068.461-.227.018-.121-.019-.22-.082-.22s-.115-.089-.115-.2c0-.133-.074-.173-.227-.125s-.348-.054-.585-.3c-.2-.206-.4-.346-.456-.313a.143.143,0,0,1-.181-.075c-.054-.088-.15-.055-.271.092-.147.179-.174.185-.125.028s-.02-.195-.273-.179a2.563,2.563,0,0,1-.7-.08,1.062,1.062,0,0,0-.238-.039Zm-1.606.325a.344.344,0,0,0-.139.024c-.1.04-.07.07.076.076s.207-.024.165-.066a.156.156,0,0,0-.1-.034Zm-9.508.3a.319.319,0,0,0-.113.073c-.1.081-.146.2-.109.259.1.166.143.139.218-.147.035-.132.04-.19,0-.185Zm20.289.14a.21.21,0,0,0-.056.011,5.017,5.017,0,0,0-1.543.835c-.133.143-.242.211-.242.153s-.1-.016-.22.093a2.145,2.145,0,0,1-.566.331c-.19.072-.345.2-.344.292,0,.129.022.129.1,0a.593.593,0,0,1,.508-.114,4.925,4.925,0,0,0,1.038-.055c.728-.115,1.242.032,1.245.356,0,.191.02.2.131.035.071-.1.24-.4.375-.654.245-.464.245-.467-.013-.9-.159-.27-.286-.388-.415-.38Zm-22.025.077c.036-.006.066.02.074.093a.9.9,0,0,0,.156.487c.058.091.078.193.045.226s-.095-.031-.138-.142-.134-.167-.2-.124-.127-.035-.127-.173C67.486,86.178,67.6,86.006,67.679,85.991Zm-1.739.877c.014,0,.018.063.024.2.012.269.276.362.841.3.075-.009.136.06.136.153a.163.163,0,0,1-.136.173,3.129,3.129,0,0,0-.472.1c-.406.109-.619-.2-.475-.687A.789.789,0,0,1,65.94,86.869Zm15.827.742c-.159,0-.369.006-.653.027a4.293,4.293,0,0,0-1.027.152c-.044.044.048.177.2.294.228.172.268.292.2.608s-.034.408.186.478a1.125,1.125,0,0,0,.548,0c.222-.062.242-.051.094.053s-.115.127.165.106c.456-.035.647-.257.483-.564-.1-.181-.057-.3.178-.522.273-.262.283-.309.107-.486a.645.645,0,0,0-.489-.151Zm5.308.137a.174.174,0,0,0-.073.032.159.159,0,0,0-.075.208.08.08,0,0,1-.061.133,2.5,2.5,0,0,0-.259.047c-.069.017-.171.039-.225.047s-.108.131-.118.273l-.019.257.416-.257c.5-.307.932-.36.675-.082-.089.1-.219.145-.288.108s-.028.036.091.162c.2.208.237.211.44.035.253-.219.828-.393.72-.218a.333.333,0,0,1-.259.114c-.1,0-.154.056-.112.124s-.016.092-.15.046c-.209-.072-.208-.064.009.105.181.141.224.3.186.705-.045.467-.015.536.284.66a3.629,3.629,0,0,0,.569.183.633.633,0,0,1,.235.07,9.158,9.158,0,0,0,.943.182c1.438.238,1.389.245,1.3-.189-.046-.229-.023-.377.057-.377s.157.156.186.346c.041.274.056.246.071-.133.012-.3-.03-.449-.11-.4a5.2,5.2,0,0,1-1.279-.06c-.921-.112-1.174-.108-1.267.022s-.095.1-.042-.068A1.528,1.528,0,0,0,89,89.478c0-.064.144-.115.319-.115.276,0,.3-.033.189-.242-.146-.274-.051-.638.166-.637a5.148,5.148,0,0,1,2.626.8c.065.1.093.092.094-.016.005-.415-1.468-.911-2.7-.909a2.915,2.915,0,0,1-1.509-.247,1.374,1.374,0,0,0-.377-.124.841.841,0,0,1-.283-.121c-.181-.1-.283-.1-.283-.021a.132.132,0,0,1-.133.13c-.073,0-.093-.065-.043-.145.035-.057.04-.086.016-.086Zm-9.936.051a.771.771,0,0,0-.408.183c-.034.054.053.069.193.032a.639.639,0,0,0,.315-.165c.025-.041-.017-.059-.1-.051Zm7.41.124q-.024.01.171.17a1.2,1.2,0,0,0,.44.258c.135,0-.093-.173-.5-.385q-.094-.049-.109-.043Zm-5.343.032a.215.215,0,0,0-.036.006c-.1.025-.385.075-.645.111-.485.068-.651.355-.252.437.346.071.74.08.566.013-.257-.1-.179-.281.1-.228.164.032.224,0,.168-.092s-.012-.112.133-.056.2.032.162-.073a.193.193,0,0,0-.195-.118Zm-6.687.472a.113.113,0,0,1,.126.111c0,.023-.082.074-.182.112q-.182.07-.113-.112A.18.18,0,0,1,72.518,88.427Zm16.723.055a.13.13,0,0,1,.133.126c0,.069-.025.126-.055.126s-.091-.057-.133-.126S89.167,88.482,89.24,88.482Zm-15.9.013c.129,0,.295,0,.505.013.829.031,1,.074,1.036.257s-.045.22-.376.218a1.432,1.432,0,0,1-.593-.113.868.868,0,0,0-.471-.078A.559.559,0,0,1,73,88.647c-.093-.112-.044-.153.342-.152Zm13.456.037c-.038.009-.087.072-.122.165-.068.179-.054.194.071.07.086-.085.124-.187.086-.226a.034.034,0,0,0-.034-.009Zm-10.971.093c-.116,0-.166.068-.166.234,0,.189.066.257.22.228a.228.228,0,0,0,0-.455.343.343,0,0,0-.054-.006Zm10.617.445a.435.435,0,0,0-.213.038c-.1.06.01.127.285.178a.777.777,0,0,1,.507.256c.1.255-.053.344-.282.167-.15-.116-.145-.089.02.105a1.218,1.218,0,0,1,.22.679h0c0,.719.1.358.15-.527a3.522,3.522,0,0,0,0-.8.876.876,0,0,1-.395-.057,1.139,1.139,0,0,0-.293-.043Zm-2.2.67c-.07,0-.16.085-.2.189s-.053.189-.029.189a.7.7,0,0,0,.2-.189c.09-.109.1-.189.029-.189Zm.279.17a.066.066,0,0,0-.044.011c-.063.039-.084.184-.048.322.05.192,0,.252-.2.252-.184,0-.24.058-.188.192.062.163.454.161.645,0,.1-.088.122-.563.021-.5-.066.041-.119-.018-.119-.13,0-.084-.029-.139-.07-.144Zm7.587.082s-.01,0-.016.01a3.1,3.1,0,0,0-.12.618q-.075.567.037.314a2.025,2.025,0,0,0,.1-.943Zm.482.386c-.043,0-.111.076-.2.24-.109.2-.1.235.058.175a.3.3,0,0,0,.191-.249C92.644,90.436,92.626,90.381,92.593,90.377Zm-23.79.2a.052.052,0,0,0-.019,0,.161.161,0,0,0-.091.209,5.313,5.313,0,0,1,.11.839c.028.378.055.7.059.718s.031.031.06.031a4.24,4.24,0,0,0,.031-.927c-.013-.616-.057-.877-.15-.874Zm22.629.461c-.019,0-.032.043-.036.135-.005.133.024.207.066.165a.253.253,0,0,0,.01-.241c-.015-.038-.029-.057-.04-.059Zm-.079.532c-.056,0-.2.3-.207.494,0,.069.048.041.115-.063a.777.777,0,0,0,.115-.377c0-.037-.01-.054-.023-.054Zm.327.6a.086.086,0,0,0-.044.016.267.267,0,0,0-.124.2c0,.181.09.141.174-.077C91.718,92.228,91.714,92.178,91.68,92.177Zm-.629.126a.086.086,0,0,0-.044.016.267.267,0,0,0-.124.2c0,.181.09.141.174-.077C91.089,92.353,91.085,92.3,91.051,92.3Zm-21.968.141c-.325,0-.42.055-.435.25s0,.218.111.063c.088-.127.149-.141.189-.043.074.178.55.068.55-.127,0-.078-.187-.142-.416-.142Zm-.254.608c-.153,0-.177.146-.1.626h0c.009.056.075.065.148.02.09-.056.091-.131,0-.237a.187.187,0,0,1,0-.283c.085-.085.07-.127-.048-.127Zm.488.4c-.029,0-.073.044-.139.11a2.164,2.164,0,0,1-.383.3c-.126.071-.2.359-.232.874a3.652,3.652,0,0,1-.128.9c-.046.074-.052.135-.014.135s.141-.173.228-.385c.155-.38.161-.382.412-.148a.555.555,0,0,0,.44.176c.159-.053.161-.031.014.148a.69.69,0,0,1-.472.209c-.223,0-.3.069-.3.273a.949.949,0,0,1-.22.525c-.121.138-.159.216-.084.172s.136,0,.136.1-.047.148-.1.113c-.106-.065-.129.121-.16,1.271a4.057,4.057,0,0,1-.119.923.345.345,0,0,0,.165.481.585.585,0,0,1,.243.586c-.035.573.128,1,.35.913.109-.042.15-.017.1.061a1.993,1.993,0,0,0-.144.527c-.055.349-.039.376.138.228s.2-.129.2.1a.5.5,0,0,0,.25.4c.138.074.242.175.231.225-.057.268.188.759.348.7s.192-.012.231.462a.185.185,0,0,0,.232.152c.19-.032.272.1.236.37-.006.045.1.053.23.019a.633.633,0,0,1,.538.233,3.237,3.237,0,0,0,.635.474,1.708,1.708,0,0,1,.535.48c.168.256.23.278.41.142s.187-.132.054.017c-.188.211-.209.425-.031.315.069-.043.126.011.126.118a.193.193,0,0,0,.189.2.81.81,0,0,1,.432.244c.142.142.263.187.289.107.081-.243.977.658.977.983,0,.166-.066.3-.147.3s-.105.042-.054.092.2-.048.339-.22.231-.228.212-.124c.312.357.206.453,1.038.671.126.116.142.1.073-.1-.083-.235-.077-.236.158-.023.162.147.273.176.328.085a.151.151,0,0,1,.2-.062.139.139,0,0,1,.047.19c-.042.069.06.066.249-.006s.322-.077.322-.021.144.178.319.272.291.243.253.342-.016.14.045.1c.1-.06.312.286.261.419-.01.027.057.1.149.152.136.084.122.188-.072.549-.132.245-.287.445-.346.445s-.106.078-.106.173a.529.529,0,0,1-.192.332c-.105.088-.162.189-.126.225s-.033.178-.154.314c-.218.244-.215.245.18.043a1.658,1.658,0,0,0,.479-.332c.147-.238.293-.127.21.158a1.3,1.3,0,0,1-.993.951,1.148,1.148,0,0,0-.87.839c-.017.069-.069.253-.115.409-.052.175-.03.283.057.283s.14.16.14.355a25.952,25.952,0,0,0,.569,3.6,3.681,3.681,0,0,1,.128,1.164c-.046.292-.018.418.1.418.175,0,.465.676.465,1.084a.647.647,0,0,0,.151.4c.083.083.1.151.047.151s-.033.085.053.189.124.189.084.189.007.226.1.5.148.5.113.5-.02.071.035.157a.889.889,0,0,1,.151.472c0,.039,1.5.069,3.747.09a30,30,0,0,0,16.5-9.157c-.3-.268-.674-.6-.866-.777a1.348,1.348,0,0,0-.6-.35.97.97,0,0,1-.46-.189.9.9,0,0,0-.407-.185,6.342,6.342,0,0,1-2.3-1.663,4.05,4.05,0,0,0-.988-.853c-.1,0-.146-.077-.1-.187s.031-.18-.018-.171c-.176.032-.907-.3-.907-.409,0-.062-.117-.114-.261-.114-.3,0-.652-.3-.52-.441.049-.051-.043-.053-.2,0-.231.071-.306.036-.36-.171-.038-.144-.128-.225-.2-.179s-.1,0-.046-.145c.077-.2.062-.207-.128-.052s-.2.15-.108,0c.078-.13.056-.159-.081-.106-.193.074-.214.02-.251-.658-.012-.208-.068-.377-.126-.377a.122.122,0,0,1-.1-.133.784.784,0,0,0,0-.487.711.711,0,0,0-.189-.431c-.22-.22-.255-.514-.047-.385.081.05.12.023.091-.065s-.1-.144-.159-.133-.157-.055-.217-.148-.076.01-.028.272.034.4-.032.335c-.112-.1-.13-.164-.159-.531-.009-.108-.072-.161-.142-.118s-.126.018-.126-.056-.091-.133-.2-.133c-.133,0-.176-.068-.126-.2A1.153,1.153,0,0,0,89,104.7a.124.124,0,0,1,.13-.115c.088,0,.087.081,0,.252s-.1.252.007.252c.078,0,.172-.113.208-.25s.116-.219.177-.181.111.009.111-.064-.1-.134-.22-.135c-.188,0-.193-.02-.031-.124s.158-.122-.027-.124c-.143,0-.191-.068-.142-.2a.364.364,0,0,0-.161-.378c-.206-.16-.208-.173-.016-.106.223.078.312-.13.109-.255a.637.637,0,0,1-.177-.322c-.037-.14-.019-.224.039-.189.123.076.307-.425.2-.536-.041-.041.019-.218.134-.393.144-.22.164-.333.063-.367a.254.254,0,0,1-.145-.234c0-.1.062-.148.139-.1.169.1.029-.418-.186-.693-.109-.139-.1-.159.015-.087.2.12.2-.074.006-.273-.083-.083-.114-.151-.069-.151s0-.2-.1-.436c-.22-.527-.226-.612-.037-.5.09.056.111.034.055-.056a.331.331,0,0,0-.25-.145.177.177,0,0,1-.16-.189c0-.1.048-.189.106-.189s.037-.11-.046-.243-.206-.21-.272-.169-.08.01-.032-.068c.132-.214-.121-.6-.584-.883a2.865,2.865,0,0,0-1.878-.155c-.047.006-.122.122-.165.26-.076.24-.09.237-.354-.06s-1.093-.553-1.093-.328c0,.064-.1.1-.22.084-.288-.043-.655.384-.6.693.026.133-.014.243-.087.243s-.064.084.038.207c.154.185.139.2-.142.109a.585.585,0,0,1-.5-.63c0-.162-.038-.2-.1-.1a1.376,1.376,0,0,0-.074.588c.017.368-.018.431-.218.392-.131-.025-.238.006-.238.068s-.127.176-.283.251c-.278.135-.279.134-.031-.074s.249-.211-.031-.144c-.156.037-.283.015-.283-.049s-.16.063-.355.282c-.3.335-.393.376-.6.257-.133-.077-.177-.142-.1-.144a.288.288,0,0,0,.215-.191c.06-.156.031-.161-.175-.032-.136.085-.247.219-.247.3a.289.289,0,0,1-.2.22c-.112.043-.162.022-.118-.049.113-.184-.055-.151-.256.049-.1.1-.134.214-.085.262s.01.069-.086.046-.294.164-.44.415-.422.689-.612.972a2.129,2.129,0,0,0-.346.707c0,.105-.057.191-.127.191a1.379,1.379,0,0,0-.485.319c-.255.227-.342.4-.3.614a.408.408,0,0,1-.1.392c-.106.066-.125.046-.059-.062s.027-.136-.169-.074c-.18.057-.268.03-.269-.081s-.03-.121-.117.017c-.063.1-.094.218-.067.261s-.076.068-.228.055a1.588,1.588,0,0,0-.654.153c-.324.152-.346.152-.157,0,.121-.1.22-.221.22-.275s.093-.166.208-.25c.165-.12.174-.173.043-.254-.1-.06-.134-.052-.09.018s-.037.189-.172.274c-.2.127-.26.119-.323-.045a.2.2,0,0,0-.267-.126c-.165.063-.167.043-.015-.15s.157-.209-.057-.04a1.248,1.248,0,0,1-.5.221c-.211.029-.23.011-.086-.082.1-.066.145-.16.1-.209s-.2.013-.342.138-.256.205-.261.177c-.1-.577-.07-.711.177-.865s.258-.152.095.045c-.275.332,0,.482.366.2.271-.209.282-.243.08-.245-.172,0-.217-.07-.169-.255.036-.138.018-.222-.04-.186a.136.136,0,0,1-.181-.058c-.047-.076-.189-.08-.373-.01-.163.062-.326.084-.36.05s-.106.006-.158.09-.043.121.042.069a.158.158,0,0,1,.218.047c.045.072-.107.31-.337.528s-.348.355-.261.3.157-.021.157.1c0,.284-.168.336-.8.249-.491-.067-.579-.122-.579-.359s-.057-.269-.291-.224-.361-.046-.592-.383c-.192-.28-.381-.423-.524-.4-.123.024-.218,0-.211-.044.034-.239-.047-.418-.362-.8-.19-.23-.255-.348-.146-.262.258.2.391.065.229-.237-.1-.182-.08-.255.075-.314a.2.2,0,0,0,.129-.266.4.4,0,0,1,.071-.36.729.729,0,0,0,.077-.516c-.059-.311-.05-.322.1-.116s.174.214.317-.053c.132-.246.124-.271-.067-.2-.154.059-.2.032-.15-.091.038-.1-.058-.241-.225-.33s-.273-.247-.251-.362.045-.262.052-.332.062-.046.124.052a.491.491,0,0,1,.041.377c-.039.11-.026.159.029.11.149-.134.187-.716.053-.8a.152.152,0,0,1-.032-.21,1.041,1.041,0,0,0-.091-1.111c-.13-.113-.2-.245-.149-.294s0-.053-.119-.009c-.162.062-.192.022-.139-.182.039-.15.008-.261-.072-.261a.162.162,0,0,0-.15.157c-.008.126-.023.126-.073,0a.258.258,0,0,0-.215-.157c-.083,0-.16-.113-.171-.252-.026-.342.168-.319.272.031l.084.283.126-.312c.086-.214.084-.326-.006-.356-.073-.024-.133-.213-.133-.42s-.007-.3-.056-.291Zm.3.31a.127.127,0,0,0-.118.133c0,.073.057.1.126.056s.126-.008.126.076.034.12.076.079C69.923,94.012,69.773,93.765,69.617,93.765Zm-.553.267a.226.226,0,0,1,.074.011c.094.031.037.088-.133.133-.209.055-.258.038-.165-.055a.335.335,0,0,1,.223-.089Zm.755.423c-.044,0-.069.014-.069.051,0,.067.1.147.22.179s.234.064.252.072.031-.012.031-.044-.113-.119-.252-.193A.485.485,0,0,0,69.82,94.455Zm.414,1.363c.031.005.01.09-.057.264-.042.109-.127.2-.189.2-.165,0-.138-.119.076-.332C70.155,95.859,70.21,95.814,70.234,95.818Zm14.8.2c-.635.035-.683.046-.622.145.032.053.228.047.435-.012.236-.068.376-.062.376.017s.052.092.114.054c.148-.092.531.054.456.174-.031.05.026.092.127.092s.183-.048.183-.108C86.1,96.217,85.456,96,85.034,96.022Zm-15.9.133c.073,0,.1.057.055.126s-.1.126-.133.126S69,96.35,69,96.281A.13.13,0,0,1,69.129,96.155Zm.545,0c.063,0,.018.107-.1.239-.168.185-.179.253-.051.3.091.036.1.071.029.076a.31.31,0,0,1-.213-.067C69.242,96.611,69.52,96.155,69.675,96.155Zm16.66,3.33a.717.717,0,0,1,.607.225c.051.082.019.093-.084.029s-.134-.052-.078.038a.23.23,0,0,0,.271.069c.113-.043.184,0,.184.122,0,.173-.8.554-1.572.749-.138.035.108.033.547,0,.859-.073,1.02.016,1.024.568,0,.156.072.284.159.285.118,0,.115.029-.011.108s-.129.121.031.183c.273.1.253.345-.021.258-.139-.044-.087.052.139.261.246.227.338.411.292.586a.545.545,0,0,0,.175.5c.2.2.205.242.05.242a.32.32,0,0,1-.269-.2c-.062-.161-.1-.167-.187-.031s-.143.115-.262-.084a1.567,1.567,0,0,1-.158-.314,1.5,1.5,0,0,0-.17-.314c-.126-.193-.147-.2-.095-.031.046.149,0,.22-.141.22-.178,0-.173.027.036.185.191.145.2.189.055.2a1.355,1.355,0,0,1-.3,0,.252.252,0,0,0-.212.136c-.065.1-.127.032-.185-.213a1.656,1.656,0,0,0-.28-.591c-.2-.225-.53-.3-.53-.12,0,.055-.184.079-.409.054-.393-.045-.41-.029-.432.42a1.209,1.209,0,0,1-.15.594c-.085.085-.1.027-.052-.175l.074-.3-.256.285-.255.286-.091-.474c-.085-.439-.1-.452-.2-.183-.061.16-.157.263-.213.228s-.191.117-.3.338h0c-.109.221-.259.543-.334.716-.13.3-.136.3-.118-.126a1.541,1.541,0,0,0-.127-.692c-.139-.24-.146-.237-.157.063s-.012.314-.126.031c-.128-.318-.312-.365-.462-.116a.736.736,0,0,1-.329.251c-.125.046-.2.13-.166.185a.316.316,0,0,1-.067.284c-.105.149-.116.142-.058-.038.039-.121.012-.22-.059-.22s-.1-.108-.054-.241c.1-.32-.134-.454-.3-.171-.079.136-.131.159-.134.058s-.075-.129-.161-.085-.044-.017.095-.135c.229-.2.231-.208.017-.133s-.227.028-.179-.3c.063-.432.038-.444-.435-.2l-.345.18.183-.355a4.885,4.885,0,0,1,.5-.733,1.615,1.615,0,0,0,.319-.487c0-.059.321-.12.714-.135a1.826,1.826,0,0,0,.786-.138.374.374,0,0,1,.261-.122c.1-.006.5-.046.881-.089a5.671,5.671,0,0,1,1.747-.01.306.306,0,0,0,.26-.051c.2-.126-1.144-.323-1.439-.21-.106.041-.192,0-.193-.08,0-.11-.032-.106-.108.014-.133.21-.846.145-.8-.073.017-.086-.025-.157-.094-.157a.138.138,0,0,0-.126.147c0,.081-.034.113-.076.071s-.209-.025-.371.037c-.235.09-.281.075-.225-.071a.328.328,0,0,1,.245-.2c.427-.038.488-.068.453-.226-.024-.111.036-.139.179-.084a.267.267,0,0,0,.318-.079c.07-.111.1-.073.1.122,0,.172.079.283.2.283s.169-.043.137-.1.091-.1.276-.112a6.954,6.954,0,0,0,.775-.1l.807-.151a2.126,2.126,0,0,0,.647-.253.807.807,0,0,1,.412-.112Zm-15.906.107a.029.029,0,0,0-.014.008c-.033.033-.023.12.023.194.124.2.2.162.112-.06-.036-.093-.087-.151-.121-.142Zm.2.5a.575.575,0,0,0-.168.038c-.194.074-.193.094.013.251.3.225.353.221.161-.011-.125-.151-.124-.189.006-.189.089,0,.133-.03.1-.066a.152.152,0,0,0-.108-.023Zm.933.006c-.019,0-.032.043-.036.135-.005.133.024.207.066.165a.253.253,0,0,0,.01-.241C71.582,100.119,71.569,100.1,71.557,100.1Zm17.935.334c-.073,0-.1.057-.056.126s.1.126.133.126.055-.057.055-.126A.13.13,0,0,0,89.492,100.432Zm-17.97.816a.294.294,0,0,0-.073.019c-.1.04-.189.095-.189.122s.085.049.189.049.189-.055.189-.122c0-.05-.048-.075-.115-.068Zm17.493.1c.016-.011.063.025.15.1.179.159.175.2-.041.378-.179.152-.2.239-.1.346s.1.143.006.143c-.225,0-.3-.38-.1-.46.126-.048.163-.16.109-.328-.036-.112-.05-.17-.033-.182Zm-21.586.133c-.029,0-.073.034-.136.086a7.27,7.27,0,0,0-1.064,1.1,12.683,12.683,0,0,1-2.162,1.916,5.116,5.116,0,0,1-1.325.651,7.443,7.443,0,0,0-.692.281,8.305,8.305,0,0,1-1.009.374l-.346.084c-.63.312-2.18.454-3.9.951a12.312,12.312,0,0,0-1.572.435c-.138.057-.379.139-.535.183s-.283.123-.283.176a1.986,1.986,0,0,1-.692.389,1.867,1.867,0,0,0-.692.4c0,.058-.106.105-.236.105a.584.584,0,0,0-.393.189.666.666,0,0,1-.455.189c-.164,0-.3.045-.3.1,0,.03-.063.079-.157.132a30,30,0,0,0,10.531,10.525.072.072,0,0,1,.069,0c.071.044.121.033.111-.024a.966.966,0,0,1,0-.229c.021-.18.641-.88.657-.743.007.063.022.267.031.454a.852.852,0,0,0,.194.5c.12.112.148.115.089.01s.028-.182.226-.232a.517.517,0,0,0,.393-.445c.044-.2.129-.337.187-.3a.14.14,0,0,0,.186-.062c.043-.07-.006-.128-.11-.128a.328.328,0,0,1-.254-.1c-.062-.1.1-.143.586-.156.165,0,.207-.084.165-.315-.031-.174,0-.277.062-.236s.118-.015.118-.123a.189.189,0,0,1,.18-.2c.231,0,.7-.6.629-.8-.032-.083.07-.207.227-.276a.418.418,0,0,0,.267-.345c-.01-.12.054-.219.14-.219a2.492,2.492,0,0,0,.821-1.058,2.494,2.494,0,0,1,.39-.593,2.323,2.323,0,0,0,.457-1,.7.7,0,0,0-.3-.825,2.21,2.21,0,0,0-1.079-.578c-.184.038-.59-.639-.744-1.238-.088-.344-.21-.626-.27-.626s-.073-.059-.028-.131a.3.3,0,0,0-.065-.307c-.115-.138-.09-.224.115-.4a.722.722,0,0,0,.261-.385.162.162,0,0,1,.157-.163c.114,0,.11-.032-.016-.112-.1-.06-.141-.162-.1-.227a3.412,3.412,0,0,0,.156-.733c.084-.622.285-1.267.3-.963,0,.091.066.129.136.086a.14.14,0,0,0,.062-.185.1.1,0,0,1,.067-.15,18.557,18.557,0,0,0,.94-4.122c.054-.44.067-.593,0-.591Zm3.257.333c.108,0,.2.057.2.126a.122.122,0,0,1-.118.126.27.27,0,0,1-.2-.126C70.525,101.872,70.579,101.815,70.687,101.815Zm15.4.629c-.22,0-.238.031-.109.187.086.1.205.156.267.118s.112.057.112.211.035.245.078.2a.592.592,0,0,0,0-.4c-.054-.216-.166-.32-.345-.32Zm1.227.043c-.045-.008-.077.02-.077.075a.13.13,0,0,0,.126.133c.069,0,.126-.025.126-.056s-.057-.09-.126-.133a.137.137,0,0,0-.049-.02Zm-7.153.344c.015,0,.018.07.023.2a.451.451,0,0,1-.117.353c-.149.092-.149-.031,0-.377.052-.121.079-.182.094-.179Zm9.045.03c-.022,0-.041.024-.056.069a.26.26,0,0,0,.115.281c.251.159.26.143.093-.17C89.291,102.919,89.242,102.86,89.2,102.862Zm-6.5.463c-.073,0-.1.057-.056.126s.1.126.133.126.055-.057.055-.126A.13.13,0,0,0,82.7,103.325Zm4.448,0c.075,0,.026.09-.108.2-.241.2-.241.2,0,.119.136-.044.207-.04.158.01a.183.183,0,0,0,.028.231h0c.08.1.043.142-.118.142-.13,0-.226-.059-.213-.13s-.091-.12-.229-.108c-.232.02-.229,0,.045-.22a1.087,1.087,0,0,1,.433-.242Zm1.766.551c.034,0,.038.05.006.134-.084.218-.174.258-.174.077a.268.268,0,0,1,.125-.2.086.086,0,0,1,.044-.016Zm.631,1.029c-.083-.013-.171.056-.171.188,0,.065.083.118.185.118s.157-.074.113-.188a.171.171,0,0,0-.127-.119Zm-8.427.224c.011,0,.025.021.04.059a.253.253,0,0,1-.01.241c-.042.042-.072-.033-.066-.165,0-.092.017-.138.036-.135Zm7.834.537a.4.4,0,0,1,.241.1c.134.1.207.215.162.26s-.119.021-.165-.053-.215-.1-.376-.061a.362.362,0,0,1-.39-.084c-.07-.113-.033-.133.133-.069.127.049.267.03.311-.041a.106.106,0,0,1,.084-.053ZM66.287,106.9c-.023-.008-.039.064-.039.194,0,.173.028.244.063.157a.485.485,0,0,0,0-.314c-.009-.022-.017-.034-.025-.036Zm.113.992c-.019,0-.032.043-.036.135-.005.133.024.207.066.165a.253.253,0,0,0,.01-.241C66.425,107.918,66.412,107.9,66.4,107.9Zm-.856.711c.031,0,.055.057.055.126a.13.13,0,0,1-.133.126c-.073,0-.1-.057-.056-.126S65.514,108.608,65.544,108.608Zm26.038,0c-.031,0-.091.057-.133.126s-.018.126.056.126a.13.13,0,0,0,.133-.126C91.638,108.665,91.613,108.608,91.583,108.608Zm-13.637.077a.112.112,0,0,0-.1.124c0,.2.158.236.264.064.038-.062-.005-.142-.1-.177a.153.153,0,0,0-.065-.011Zm-11.317.2c-.008,0-.012.016-.013.043a6.968,6.968,0,0,0,.636,2.1c.342.671.38.583.082-.189-.14-.363-.357-1-.481-1.415-.1-.337-.191-.547-.223-.538Zm1.6,3.557.086.377c.137.6.3.827.721,1.012.643.28.732.229.445-.257-.265-.45-.446-.593-.314-.249s-.411-.039-.688-.483Zm3.037,1.133a.306.306,0,0,0-.084.022.187.187,0,0,0-.131.224.127.127,0,0,1-.118.172l-.37.042c-.32.035-.026.209.444.264.242.028.505.061.584.072.223.031.317-.357.106-.438a.151.151,0,0,1-.1-.215c.047-.079-.02-.059-.15.045-.214.171-.229.168-.157-.025.044-.117.038-.167-.026-.163Zm-1.28.314c-.069,0-.091.057-.048.126a.276.276,0,0,0,.2.126c.069,0,.091-.057.048-.126A.275.275,0,0,0,69.987,113.891Zm-4.907,2.825a.349.349,0,0,1,.072.021c.107.041.2.1.2.124,0,.1-.24.045-.313-.075-.033-.053-.013-.079.046-.07ZM63.36,118.8a.056.056,0,0,1,.034.016c.023.024-.037.117-.134.206s-.176.107-.176.039a.338.338,0,0,1,.277-.261Zm.325.006c.016,0,.025.029.026.076a.644.644,0,0,1-.2.346.658.658,0,0,1-.324.2c-.069,0-.023-.1.1-.219a3.548,3.548,0,0,0,.322-.346c.029-.04.053-.059.069-.055Z" transform="translate(-51.48 -69.743)" fill="#252525"/>
      <path id="path26" d="M128.1,123.881a.479.479,0,0,1,.078-.093.988.988,0,0,1,.1-.079c.028-.024.06-.042.09-.063a.815.815,0,0,0,.085-.074.862.862,0,0,0,.08-.086,1.076,1.076,0,0,0,.071-.1c.019-.03.038-.059.057-.088s.048-.061.07-.092a.8.8,0,0,0,.063-.1.46.46,0,0,0,.047-.106.791.791,0,0,0,.025-.089.381.381,0,0,0,.024-.094c.006-.033.011-.066.014-.1a.31.31,0,0,0-.008-.1,1.189,1.189,0,0,0-.025-.12.442.442,0,0,0-.043-.115,1.143,1.143,0,0,1-.063-.13c-.016-.052-.04-.1-.061-.152a.95.95,0,0,0-.067-.154.485.485,0,0,1-.045-.127.461.461,0,0,1-.026-.091l0-.015.172-.092h0l0,.016a.41.41,0,0,0,.024.089.442.442,0,0,0,.042.124.925.925,0,0,1,.067.156c.021.051.047.1.063.152a1.01,1.01,0,0,0,.062.127.431.431,0,0,1,.045.118,1.163,1.163,0,0,1,.026.121.321.321,0,0,1,.011.108.774.774,0,0,1-.014.1.323.323,0,0,1-.022.1.9.9,0,0,1-.026.089.489.489,0,0,1-.045.11.67.67,0,0,1-.063.1,1.067,1.067,0,0,1-.069.091c-.021.029-.039.059-.058.088a1.2,1.2,0,0,1-.071.1.631.631,0,0,1-.079.088,1.049,1.049,0,0,1-.084.076c-.029.022-.062.04-.09.063s-.067.049-.1.077a.456.456,0,0,0-.078.088l-.18.08Z" transform="translate(-91.671 -96.956)" fill="#252525"/>
      <path id="path28" d="M110.8,102.345a2.173,2.173,0,0,0-.222.032c-.083.011-.166.019-.249.031a.8.8,0,0,0-.145.045.989.989,0,0,1-.118.027l.155-.116h0a.881.881,0,0,0,.116-.03.612.612,0,0,1,.145-.04c.082-.01.165-.018.247-.03s.151-.027.228-.035l-.157.117Z" transform="translate(-82.211 -86.784)" fill="#252525"/>
      <path id="path30" d="M110.615,102.456c-.051.007-.1.02-.152.028s-.077.018-.116.027a.893.893,0,0,1-.1.035c-.036.011-.074.015-.11.024a.075.075,0,0,1-.08-.021.118.118,0,0,1-.008-.017c-.01-.054.035-.088.072-.12a1.447,1.447,0,0,1,.235-.137.27.27,0,0,1,.073-.014.967.967,0,0,0,.148-.016c.045-.013.092-.013.136-.03-.055.031-.112.057-.164.092,0,0,.006.01,0,.015s-.008,0-.013,0l-.026,0-.071.012a1.182,1.182,0,0,0-.138.032c-.051.018-.206.111.128-.074-.02.018.036.022.044.023a.7.7,0,0,0,.08,0l.048-.009c.049-.01.1-.026.146-.037l.018-.005.036-.008.017,0s.015-.005.012,0c-.054.04-.109.077-.164.116-.059.011-.118.021-.177.031s-.135.017-.2.03-.166.117.1-.066c0,0,0-.011,0-.017l.017,0a1.133,1.133,0,0,0,.221-.081.613.613,0,0,1,.172-.038.909.909,0,0,0,.156-.028c.033-.012.067-.022.1-.031.017,0,.007,0,.02,0-.187.142-.13.115-.285.142a.6.6,0,0,0-.129.031c-.051.012-.1.021-.155.028a.574.574,0,0,0-.121.017c-.037.013-.074.026-.109.042-.06.031-.158.088.11-.065l-.018.011-.033.023-.015.01c-.06.035-.121.07-.182.1-.015.008-.028,0-.029-.018s0-.01.005-.016l.017-.015c.014-.011.031-.021.046-.031s.021-.017.018-.01a.1.1,0,0,1-.008.015,1.055,1.055,0,0,0-.212.073l.147-.084c0-.014-.009.011-.011.008s.006-.013,0-.012c-.055.029-.109.06-.164.089l.006,0,.179-.08h0l0,.013c-.059.033-.117.069-.178.1-.007,0-.02-.017-.02-.018-.03-.072.437-.161.191-.13a1.121,1.121,0,0,1,.219-.068.1.1,0,0,1,.028.013.012.012,0,0,1,0,.014c-.009.016-.062.039-.079.053s-.014.005-.018-.006l.014-.007c-.12.071-.208.119-.137.08.017-.012.033-.025.051-.036.073-.043.146-.09.223-.125a1.1,1.1,0,0,1,.111-.039c.04-.009.081-.01.122-.015a1.163,1.163,0,0,0,.153-.031.657.657,0,0,1,.13-.029c.032-.005.064-.01.1-.017.074-.018.06-.038-.123.109a.285.285,0,0,1-.036.01c-.026.008-.052.019-.079.025a1.19,1.19,0,0,1-.157.026.588.588,0,0,0-.168.042,1.083,1.083,0,0,1-.226.079c-.008,0-.017,0-.024,0s-.024-.015-.017-.021a.617.617,0,0,1,.235-.123l.2-.028.114-.02c.017,0,.038-.009.055-.01h.017c-.051.039-.1.079-.153.117,0,0-.007,0-.011,0-.024,0-.047.011-.07.017-.049.011-.1.026-.146.036a.424.424,0,0,1-.133,0c-.026-.005-.063-.013-.068-.046a.051.051,0,0,1,0-.017c.06-.036.12-.073.181-.107a.12.12,0,0,1,.024-.008c.045-.013.092-.02.138-.029s.042-.008.073-.012c.007,0,.039-.006.048,0s.022.016.015.021a1.562,1.562,0,0,1-.174.1c-.045.01-.09.016-.135.026s-.1.013-.149.016a.421.421,0,0,0-.045.009c-.008,0-.032.013-.025.008.257-.168.152-.09.094-.055a.457.457,0,0,0-.044.038c-.017.016-.036.033-.035.058s.047.021.072.016a.925.925,0,0,0,.109-.026l.1-.034c.038-.009.077-.018.115-.025l.154-.03-.157.117Z" transform="translate(-82.146 -86.75)" fill="#252525"/>
      <path id="path32" d="M109.384,103a1.578,1.578,0,0,0-.19-.022l-.084-.009.157-.112h0l.083.009c.065.006.132.009.2.022l-.162.111Z" transform="translate(-81.712 -87.112)" fill="#252525"/>
      <path id="path34" d="M109.91,102.007c-.067,0-.134,0-.2,0h-.575c-.056,0-.112,0-.168.008a1.052,1.052,0,0,0-.162.024,1.374,1.374,0,0,1-.145.008h-.7a1.345,1.345,0,0,0-.137.039,1.058,1.058,0,0,0-.121.048c-.056.023-.113.044-.17.064s-.126.027-.188.042a1.242,1.242,0,0,1-.119.037.893.893,0,0,1-.126.009h-.118a.456.456,0,0,0-.065,0l.156-.115h.184a.581.581,0,0,0,.123-.013c.04-.011.079-.025.119-.036a1.446,1.446,0,0,0,.185-.042c.058-.02.115-.044.172-.067a.989.989,0,0,1,.121-.046.709.709,0,0,1,.142-.034h.7a1.014,1.014,0,0,0,.143-.01.935.935,0,0,1,.161-.021c.057,0,.114-.009.171-.008h.573c.068,0,.137,0,.2,0l-.158.115Z" transform="translate(-80.558 -86.608)" fill="#252525"/>
      <path id="path36" d="M107.736,102.4c.08,0,.159,0,.239,0h.2a.4.4,0,0,0,.132-.018c.093-.023.188-.042.282-.058.057-.01.114-.013.171-.021.025-.006.052,0,.077-.007l.043-.01c.071-.015.143-.024.214-.035a1.875,1.875,0,0,1,.186-.021l-.156.115h0a1.744,1.744,0,0,0-.183.021c-.072.012-.145.021-.216.038-.04.008-.081.011-.122.016s-.111.009-.167.019a2.781,2.781,0,0,0-.283.061.431.431,0,0,1-.137.015h-.2c-.081,0-.162,0-.244,0l.158-.115Z" transform="translate(-80.908 -86.785)" fill="#252525"/>
      <path id="path38" d="M108.292,102.249a1.652,1.652,0,0,1-.171.04c-.061.012-.122.02-.183.027.033-.021-.055.014-.043.006.06-.042.12-.085.184-.121a.159.159,0,0,1,.048-.01l.162-.032c.192-.033.383-.071.573-.109.006,0,.025-.008.019,0a1.744,1.744,0,0,1-.168.118c-.01.006-.023,0-.035,0l-.057.007-.148.019c-.033,0-.094.012-.129.019-.01,0-.037.015-.029.009.167-.118.121-.11.26-.1s.3,0,.442.009c0,0,.014,0,.01.007a1.973,1.973,0,0,1-.173.121.1.1,0,0,1-.031.007l-.045.009c-.089.018-.026,0-.12.026s-.205.051-.308.075-.114.074.118-.081c0,0,0-.013,0-.016s.012,0,.018,0h.025c.1,0,.132-.032-.12.115-.008,0-.018,0-.028,0h-.05c-.16,0-.319,0-.479,0-.109,0-.06,0,.129-.122a.075.075,0,0,1,.03,0l.09-.012c.08-.007.158-.03.239-.033.051.005.1.019.152.026a.109.109,0,0,0,.059,0s.007-.008,0-.007c-.121.076-.112.07-.168.11-.025,0-.05-.016-.038-.045.059-.033.118-.068.178-.1,0,0,.01,0,.015,0h.1a1.451,1.451,0,0,0,.166-.02c.043-.008.086-.019.128-.028a.628.628,0,0,1,.153-.039c.04,0,.08-.013.12-.016s.079-.009.118-.009.048.03.021.058a1.87,1.87,0,0,1-.268.142l-.022.006-.044.015c-.007,0-.028.012-.021.008.174-.1.189-.117.132-.07-.025.03-.029.067-.054.1a.369.369,0,0,1-.24.116l.157-.116h0a.213.213,0,0,0,.031,0s.018-.008.014,0c-.133.081-.211.117-.141.084a.07.07,0,0,0,.023-.021c.015-.023.015-.054.033-.076a.57.57,0,0,1,.288-.153c.076-.029.236-.126-.067.05.006,0,.012-.008.018-.011s.01,0,.008,0a.069.069,0,0,0-.022,0c-.039,0-.078.009-.118.011l-.118.016a.953.953,0,0,0-.153.04c-.043.01-.085.021-.129.027a1.092,1.092,0,0,1-.167.018c-.029,0-.057,0-.086,0-.071.007-.154.077.13-.087H108.5l-.007,0s0,0,.008.006l.025.007c.066.048.021.009-.148.124a.282.282,0,0,1-.069,0,1.2,1.2,0,0,0-.149-.023c-.079.006-.156.022-.234.031-.021,0-.07.01-.093.015s-.038.016-.03.009c.14-.127.087-.113.176-.108.16,0,.32,0,.48,0h.054c.01,0,.039-.008.031,0-.128.123-.1.117-.2.114a.459.459,0,0,1-.048,0c-.009,0-.028-.015-.02-.021a.394.394,0,0,1,.217-.11c.1-.023.2-.046.3-.072.057-.014.115-.024.171-.04.011,0,.041-.019.032-.012-.137.116-.1.15-.147.105a.989.989,0,0,0-.154-.011c-.094,0-.187,0-.281,0-.023,0-.046,0-.068,0s-.053,0-.043-.007c.122-.133.161-.116.3-.136l.151-.021.061-.009c.013,0,.049-.015.04-.005-.113.117-.087.113-.16.116-.19.027-.377.069-.565.1l-.17.038c-.017,0-.063.026-.052.012.085-.114.086-.107.168-.116.061-.008.122-.015.182-.028s.117-.026.175-.042l-.157.118Z" transform="translate(-81.012 -86.687)" fill="#252525"/>
      <path id="path40" d="M115.367,103.553h.968a.469.469,0,0,0,.139-.01c-.056.04.123-.069.062-.034-.385.222-.249.151-.17.092a.2.2,0,0,0,.072-.123.9.9,0,0,0,.006-.139.4.4,0,0,1,.013-.142.72.72,0,0,1,.112-.135.208.208,0,0,0,.041-.121.151.151,0,0,0-.037-.123.915.915,0,0,0-.117-.074.282.282,0,0,0-.124-.035h-.023a.3.3,0,0,0-.051.015l-.082.025a.59.59,0,0,1-.147.031c-.051,0-.1,0-.154,0h-.168c-.065-.014-.128-.035-.192-.051s-.143-.035-.214-.056a.629.629,0,0,0-.161-.04c-.047,0-.093-.011-.14-.016s-.094-.012-.141-.018-.1-.033-.144-.05-.119-.059-.179-.086a1.989,1.989,0,0,0-.252-.105c-.116-.027-.235-.045-.353-.064a.988.988,0,0,1-.223-.074.723.723,0,0,0-.164-.053c-.061-.011-.12-.027-.181-.035a.83.83,0,0,0-.161,0,.689.689,0,0,0-.188.048.914.914,0,0,1-.209.023h-.514c-.047-.007-.094-.013-.141-.016a.948.948,0,0,0-.148-.019c-.057,0-.114,0-.171,0s-.125-.013-.188-.016h-.032l.222-.16h.032l.188.014c.057,0,.115,0,.172,0s.1.011.149.019.093.012.14.014h.292c.073,0,.146,0,.218,0a.8.8,0,0,0,.205-.03.675.675,0,0,1,.193-.043.985.985,0,0,1,.164.01c.061.01.121.025.182.037a.678.678,0,0,1,.167.057.956.956,0,0,0,.215.071c.119.021.239.036.355.067l.056.017c.07.024.132.065.2.09a1.863,1.863,0,0,0,.179.083,1.072,1.072,0,0,0,.142.044c.047.007.093.015.14.018s.093.013.14.017a.877.877,0,0,1,.162.044c.071.02.142.036.213.055a1.308,1.308,0,0,0,.19.044h.168a1.437,1.437,0,0,0,.152-.005.848.848,0,0,0,.144-.035.373.373,0,0,1,.163-.03.342.342,0,0,1,.129.043.767.767,0,0,1,.122.083.194.194,0,0,1,.048.142.259.259,0,0,1-.035.136c-.034.046-.079.082-.115.127a.268.268,0,0,0-.018.133,1.288,1.288,0,0,1,0,.144.225.225,0,0,1-.065.142,1.22,1.22,0,0,1-.366.211.931.931,0,0,1-.143.005h-.969l.224-.163Z" transform="translate(-83.024 -86.646)" fill="#252525"/>
      <path id="path42" d="M116.407,103.169c-.057,0-.115,0-.173,0a1,1,0,0,1-.153.019c-.048,0-.1,0-.143,0a.39.39,0,0,1-.12-.009.274.274,0,0,1-.028-.013c-.052-.022-.108-.034-.162-.052s-.092-.024-.139-.031a.38.38,0,0,1-.157-.085.88.88,0,0,1-.135-.145.665.665,0,0,1-.049-.089.25.25,0,0,0-.026-.03.479.479,0,0,0-.171-.09c-.071-.017-.139-.042-.21-.06a.69.69,0,0,1-.149-.063,1.143,1.143,0,0,0-.2-.1.764.764,0,0,0-.2-.066,1,1,0,0,0-.179-.013h-.18c-.034-.006-.061.014-.092.022-.012,0-.037.007-.049.009a.262.262,0,0,1-.069.018l.6-.456h0a.457.457,0,0,1,.07-.017.405.405,0,0,1,.15-.019c.059,0,.118,0,.178,0a.705.705,0,0,1,.19.027,1.17,1.17,0,0,1,.2.076c.071.028.137.065.206.1.046.018.092.036.139.051.069.024.14.042.209.065a.711.711,0,0,1,.2.118.326.326,0,0,1,.036.045c.016.026.023.056.041.081a.508.508,0,0,0,.123.128.32.32,0,0,0,.142.056,1.235,1.235,0,0,1,.143.039c.054.016.107.036.161.051a1.284,1.284,0,0,0,.135,0c.047,0,.094,0,.14-.006a1.131,1.131,0,0,1,.154-.012c.06,0,.12,0,.18,0l-.614.446Z" transform="translate(-84.082 -86.611)" fill="#252525"/>
      <path id="path44" d="M118.561,104.466c-.063,0-.126,0-.189,0a.965.965,0,0,1-.159,0,1.057,1.057,0,0,1-.165-.034c-.085-.03-.173-.055-.259-.081a.873.873,0,0,1-.2-.063c-.043-.021-.088-.037-.13-.058a1.291,1.291,0,0,0-.136-.07.892.892,0,0,0-.179-.089c-.059-.012-.113-.038-.172-.053a1.359,1.359,0,0,0-.158-.034l.608-.425h0a1.658,1.658,0,0,1,.166.036c.06.018.12.035.178.058s.119.064.181.091.093.046.139.069.086.038.129.059a1.723,1.723,0,0,0,.185.061c.087.025.173.054.261.073.054.011.109.017.165.023s.1,0,.153,0,.131,0,.2,0l-.613.445Z" transform="translate(-85.752 -87.48)" fill="#252525"/>
      <path id="path46" d="M119.011,103.877a.785.785,0,0,0-.148-.013,1.056,1.056,0,0,1-.151-.015c-.046,0-.092,0-.138,0a.636.636,0,0,1-.143-.013,1.35,1.35,0,0,1-.146-.019c-.075-.009-.149-.026-.223-.041a1.352,1.352,0,0,0-.219-.022.51.51,0,0,1-.19-.027c-.055-.019-.1-.063-.148-.085a.356.356,0,0,0-.1-.017.47.47,0,0,1-.062-.015,1.142,1.142,0,0,0-.174-.039c-.047,0-.095,0-.142,0h-.069l.609-.443h.07a.8.8,0,0,1,.148.014c.058.014.114.032.172.044a.472.472,0,0,1,.172.047.508.508,0,0,0,.137.073,1.263,1.263,0,0,0,.179.016,1.584,1.584,0,0,1,.221.033,2.073,2.073,0,0,0,.228.033c.049.007.1.01.148.017a1.121,1.121,0,0,0,.139,0,1.159,1.159,0,0,1,.141.011,1.11,1.11,0,0,0,.147.012c.053,0,.106.01.159.016l-.621.436Z" transform="translate(-85.83 -87.252)" fill="#252525"/>
      <path id="path48" d="M119.545,104.721c-.038-.006-.076,0-.114,0a.324.324,0,0,1-.066-.013.586.586,0,0,1-.165-.084,1.4,1.4,0,0,1-.105-.112.2.2,0,0,0-.1-.065c-.048-.019-.091-.048-.138-.072a1.276,1.276,0,0,0-.262-.1,1.8,1.8,0,0,0-.317-.075c-.06-.009-.03-.005-.09-.011l.6-.428h0l.094.015c.106.022.209.058.313.086a2.274,2.274,0,0,1,.284.1.986.986,0,0,0,.137.064.388.388,0,0,1,.119.094.874.874,0,0,0,.1.1.372.372,0,0,0,.144.059,1.355,1.355,0,0,0,.181,0l-.614.446Z" transform="translate(-86.473 -87.585)" fill="#252525"/>
      <path id="path50" d="M120.4,104.089a.341.341,0,0,1-.174-.033.154.154,0,0,1-.068-.149c.016-.1.159-.222.259-.169.083.1-.053.116-.16.161,0,0,0-.009-.007-.014-.02-.052-.025,0,.173-.1,0,0,0,.006,0,.009s0,.01,0,.014,0,.012.01.014.029-.006.022,0c-.178.1-.208.131-.152.076a.288.288,0,0,0,.024-.142.2.2,0,0,1,.239-.149.116.116,0,0,1,.054.1.842.842,0,0,1,0,.164c-.024.144-.09.134-.237.215-.041-.022-.045-.075-.058-.116a.086.086,0,0,0-.02-.035c-.011-.011-.016,0-.015,0,.177-.1.11-.108.183-.1.06-.013.2-.1-.141.082,0,0,.008-.007.011-.011a.105.105,0,0,0,.016-.039.19.19,0,0,0-.022-.136.193.193,0,0,0-.095-.1c-.014-.015-.083-.009-.094-.016s0-.006-.007-.009a.058.058,0,0,1,0-.018.017.017,0,0,1,.008-.01c.128-.075.145-.1.25-.116a.8.8,0,0,1,.145,0c.148.005-.035.154-.144.13-.053-.006-.106-.017-.159-.025s-.1-.017-.153-.023-.094,0-.141,0-.093.023-.14.03a1.567,1.567,0,0,1-.158.007H119.1l.163-.118h.543a1.067,1.067,0,0,0,.156-.01.842.842,0,0,1,.142-.027,1.373,1.373,0,0,1,.142.006c.051.006.1.017.153.023s.106.019.16.022c.081-.01-.018,0-.153.1,0,0,.009.008.011.014s0,0-.006,0l-.036-.006a.857.857,0,0,0-.143.005.309.309,0,0,0-.04.008c-.006,0-.023.009-.018.006.053-.033.107-.063.16-.094,0,0-.007,0-.01,0s-.007,0-.01-.007,0,0,0,0a.075.075,0,0,1,.029,0,.234.234,0,0,1,.068.019.243.243,0,0,1,.1.107.226.226,0,0,1,.029.149.211.211,0,0,1-.011.046.208.208,0,0,1-.229.119s-.017-.008-.013-.012c.117-.1.164-.176.214-.058,0,.015.019.084.034.09s.005,0,.008,0l-.161.1c-.005,0,.012,0,.016-.008a.149.149,0,0,0,.04-.089.772.772,0,0,0,0-.16c0-.032-.006-.07-.041-.08a.061.061,0,0,0-.015,0c-.005,0-.02.007-.015,0,.052-.033.106-.064.16-.1-.009.005-.013.006-.018.017s0,.011,0,.016a.492.492,0,0,1-.019.153c-.034.066-.2.189-.246.088,0-.005,0-.01,0-.015s-.007-.011,0-.014c.1-.068.159-.175.189-.088.026.067.005.008-.171.108,0,0,0,0,0-.007a.034.034,0,0,0,0-.026.049.049,0,0,0-.009-.009c-.062-.014-.2.093.128-.093.006,0-.012.009-.017.015s-.014.021-.021.044a.119.119,0,0,0,.056.128.312.312,0,0,0,.168.023l-.163.121Z" transform="translate(-86.952 -87.411)" fill="#252525"/>
      <path id="path52" d="M107,102.388a1.623,1.623,0,0,1-.217-.01,2,2,0,0,0-.211-.016h-.2a.611.611,0,0,1-.212-.037,1.107,1.107,0,0,0-.284-.063c-.162-.01-.325-.009-.487-.01s-.353,0-.529,0a1.416,1.416,0,0,0-.295.037,2.152,2.152,0,0,0-.321.092c-.108.038-.212.087-.319.13a3.031,3.031,0,0,0-.386.187l.219-.177h0a3.494,3.494,0,0,1,.387-.183c.107-.044.212-.094.322-.13a2.326,2.326,0,0,1,.323-.088,1.291,1.291,0,0,1,.3-.032c.174,0,.349,0,.523,0s.332,0,.5.007a1.33,1.33,0,0,1,.288.067.683.683,0,0,0,.208.029c.066,0,.132,0,.2,0s.141.009.212.018a1.641,1.641,0,0,0,.217.005l-.233.169Z" transform="translate(-78.792 -86.71)" fill="#252525"/>
      <path id="path54" d="M105.677,102.811c-.086,0-.171,0-.257,0h-.811c-.067,0-.135,0-.2,0a1.153,1.153,0,0,0-.25.046,1.215,1.215,0,0,0-.205.06l.222-.173h0a1.608,1.608,0,0,1,.209-.061,1.361,1.361,0,0,1,.254-.042c.068,0,.136,0,.2,0h.81c.086,0,.172,0,.259,0l-.232.169Z" transform="translate(-79.005 -87.001)" fill="#252525"/>
      <path id="path56" d="M105.292,102.507a2.171,2.171,0,0,1,.28-.037c.084-.016.17-.019.255-.032a2.16,2.16,0,0,0,.312-.065,1.542,1.542,0,0,1,.161-.029.279.279,0,0,0,.039-.006c.006,0,.019-.014.014-.011l-.248.157a1.018,1.018,0,0,0-.175-.012h-.574c-.041,0-.082,0-.122,0,0,0-.019,0-.015,0,.245-.178.149-.173.287-.169.16,0,.321,0,.481,0h.775a1.284,1.284,0,0,1,.205.009c.07.012.137.039.206.056a1.6,1.6,0,0,0,.208.035.225.225,0,0,1,.174.054.143.143,0,0,1,0,.159c-.191.179-.226.181-.392.14a1.012,1.012,0,0,0-.16-.046.668.668,0,0,0-.165-.025c-.064,0-.127,0-.191,0-.044,0-.089.006-.132,0l-.072-.018c-.075-.015-.148-.037-.223-.05s-.14-.011-.21-.021a2.071,2.071,0,0,0-.228-.016H105.3a.375.375,0,0,0-.135.014l.227-.173h0a.642.642,0,0,1,.138-.008h.238c.081,0,.162,0,.243,0a2.1,2.1,0,0,1,.23.018c.07.009.141.01.211.022s.149.036.224.051a.841.841,0,0,0,.2.012c.064,0,.128,0,.192,0a.758.758,0,0,1,.168.029,1.383,1.383,0,0,1,.16.045.267.267,0,0,0,.075.013c.007,0,.028-.008.022,0-.179.115-.311.171-.206.125a.085.085,0,0,0,.018-.12c-.044-.04-.106-.032-.161-.039a1.8,1.8,0,0,1-.211-.038,1.431,1.431,0,0,0-.2-.053,1.762,1.762,0,0,0-.2-.006h-.769c-.162,0-.324,0-.486,0-.133,0-.068.01.177-.169,0,0,.008,0,.012,0h.7a.492.492,0,0,1,.187.025c-.074.059-.146.12-.221.177,0,0-.011,0-.016,0l-.037,0c-.053.008-.106.017-.158.03a2.178,2.178,0,0,1-.316.065c-.085.011-.17.018-.255.03a1.317,1.317,0,0,0-.279.045l.227-.177Z" transform="translate(-79.59 -86.824)" fill="#252525"/>
      <path id="path64" d="M91.768,126.416c-.045.049-.087.1-.132.147a1.465,1.465,0,0,0-.118.146c-.023.047-.044.095-.068.141a.612.612,0,0,0-.058.151,1.5,1.5,0,0,1-.049.163.781.781,0,0,0-.026.161c0,.053,0,.105,0,.158s0,.1,0,.147c0,.065,0,.13,0,.2a.508.508,0,0,0,.021.182.548.548,0,0,0,.093.167.248.248,0,0,1,.045.191.508.508,0,0,1-.022.055.7.7,0,0,1-.209.2,6.741,6.741,0,0,1-.818.473c-.011.006-.023.01-.034.016l-.029.016c.712-.409.975-.551.707-.407a.218.218,0,0,0-.093.107.782.782,0,0,0-.041.137.907.907,0,0,0-.009.135.284.284,0,0,0,.023.132.751.751,0,0,1,.056.143,1.266,1.266,0,0,1,.014.183.9.9,0,0,1-.005.168,1.579,1.579,0,0,1-.051.155.25.25,0,0,0,.048.256.606.606,0,0,0,.145.122.6.6,0,0,1,.124.116.471.471,0,0,1,.084.157,1.056,1.056,0,0,0,.054.135,1.351,1.351,0,0,0,.065.145.917.917,0,0,0,.071.117c.017.017.027.039.043.056a.424.424,0,0,0,.048.038.874.874,0,0,1,.159.124.53.53,0,0,0,.121.089c.016.008.033.013.049.02l.026.012a.234.234,0,0,0,.049.024c.023.008.047.012.07.021a.447.447,0,0,1,.157.087c.05.038.1.077.146.117a.811.811,0,0,0,.128.1.919.919,0,0,0,.15.085.312.312,0,0,0,.093.018.2.2,0,0,1,.051.017.9.9,0,0,1,.143.051,1.247,1.247,0,0,1,.15.073.213.213,0,0,0,.083.026.222.222,0,0,0,.045.013.278.278,0,0,1,.147.056.671.671,0,0,1,.131.15.126.126,0,0,0,.113.064.228.228,0,0,1,.156.083l-.748.462h0a.318.318,0,0,0-.133-.046.275.275,0,0,1-.147-.12.327.327,0,0,0-.108-.114,1.218,1.218,0,0,0-.137-.036.543.543,0,0,1-.138-.054.666.666,0,0,0-.143-.067c-.047-.015-.094-.029-.141-.043a.437.437,0,0,1-.148-.048,1.779,1.779,0,0,1-.156-.093,1.256,1.256,0,0,1-.134-.109c-.046-.038-.092-.076-.141-.11a.474.474,0,0,0-.149-.065,1.2,1.2,0,0,1-.148-.066.877.877,0,0,1-.175-.134c-.053-.043-.112-.077-.168-.116a.542.542,0,0,1-.1-.114.934.934,0,0,1-.078-.132,1.045,1.045,0,0,1-.065-.146.623.623,0,0,1-.059-.142.326.326,0,0,0-.065-.127.684.684,0,0,0-.115-.1.989.989,0,0,1-.155-.149.411.411,0,0,1-.088-.162.343.343,0,0,1,0-.158c0-.014.008-.041.012-.054.011-.035.032-.067.041-.1a.171.171,0,0,0,.01-.022.924.924,0,0,0,0-.125,1.1,1.1,0,0,0-.007-.167.5.5,0,0,0-.051-.132.451.451,0,0,1-.038-.16c0-.049,0-.1,0-.146a.657.657,0,0,1,.011-.079.449.449,0,0,1,.016-.049c0-.009,0-.019.007-.029a.45.45,0,0,1,.072-.152.12.12,0,0,1,.02-.019c.257-.151.517-.3.775-.447.019-.011.078-.039.059-.028-.235.137-.472.272-.707.409-.014.008.029-.015.043-.022a1.409,1.409,0,0,0,.247-.192.137.137,0,0,0,.011-.025.154.154,0,0,0-.027-.1,1.022,1.022,0,0,1-.1-.188.466.466,0,0,1-.034-.208c0-.064,0-.129,0-.193,0-.049,0-.1,0-.146s0-.109,0-.163a.815.815,0,0,1,.02-.179c.007-.03.013-.061.022-.09s.014-.029.019-.044a.162.162,0,0,0,0-.026,1.527,1.527,0,0,1,.049-.168c.023-.048.052-.092.07-.142a.371.371,0,0,1,.026-.059c.024-.039.059-.072.087-.108s.086-.091.123-.142l.815-.346Z" transform="translate(-71.758 -99.472)" fill="#252525"/>
      <path id="path66" d="M92.428,130.665a1.151,1.151,0,0,0,.049.214c.013.054.033.106.046.161s.051.126.069.192a.483.483,0,0,1,.016.17.166.166,0,0,0,0,.109.611.611,0,0,1,.092.143.547.547,0,0,1,.027.323c-.015.051-.035.1-.048.151a1.327,1.327,0,0,1-.051.163.141.141,0,0,0,0,.123.4.4,0,0,0,.114.116c.055.037.11.074.163.114s.072.063.109.092l.059.039a1.74,1.74,0,0,1,.16.114c.046.045.094.087.143.128.051.059.092.125.142.184a.358.358,0,0,0,.077.06c.013.007.027.011.04.016l.028.006.041.014c.064.018.132.029.2.041.046.013.1,0,.141.019a.411.411,0,0,1,.066.031,1.4,1.4,0,0,1,.148.1c.056.039.107.085.167.119a.15.15,0,0,1,.214-.008.735.735,0,0,1,.156.148c.04.05.08.1.118.152a1.048,1.048,0,0,1,.091.159c.021.042.009.092.028.134l.011.012-.755.451h0l-.022-.029a.36.36,0,0,1-.034-.143.453.453,0,0,0-.077-.139,1.637,1.637,0,0,0-.111-.147.653.653,0,0,0-.14-.128.165.165,0,0,0-.217.011c-.056-.04-.11-.083-.168-.122a1.4,1.4,0,0,0-.141-.087c-.061-.021-.127-.021-.188-.041-.1-.023-.194-.039-.288-.07a.37.37,0,0,1-.134-.114,1.072,1.072,0,0,0-.135-.168c-.048-.042-.094-.085-.143-.125s-.1-.074-.152-.111-.114-.089-.173-.132-.107-.076-.161-.114a.558.558,0,0,1-.138-.147.257.257,0,0,1-.032-.19.288.288,0,0,1,.009-.031c.023-.056,0,.011.022-.047a.4.4,0,0,0,.012-.054c0-.008,0-.017.007-.025a1.483,1.483,0,0,1,.047-.153.271.271,0,0,0,.024-.13.39.39,0,0,0-.02-.133.465.465,0,0,0-.092-.135.23.23,0,0,1-.03-.159.638.638,0,0,0,.011-.067.657.657,0,0,0-.007-.079.723.723,0,0,0-.07-.187c-.017-.055-.031-.111-.045-.166a1.288,1.288,0,0,0-.058-.2l.779-.424Z" transform="translate(-72.552 -101.701)" fill="#252525"/>
      <path id="path68" d="M96.484,137.358a1.335,1.335,0,0,0,.1.159l.022.03-.75.445h0l-.024-.033c-.039-.053-.078-.106-.121-.155l.769-.446Z" transform="translate(-74.685 -105.212)" fill="#252525"/>
      <path id="path70" d="M91.036,125.373c-.009.076-.008.152-.013.228a.684.684,0,0,1-.035.216.766.766,0,0,1-.113.187.619.619,0,0,1-.125.118.246.246,0,0,0-.052.17.4.4,0,0,0,.063.163,1.154,1.154,0,0,0,.122.163.87.87,0,0,0,.15.11l.026.018c.042.025.009,0,.054.031a.415.415,0,0,1,.082.083.327.327,0,0,1,.056.2c0,.108,0,.215,0,.323a.62.62,0,0,0,.069.308l-.748.424h0c-.013-.029-.039-.082-.05-.112a.632.632,0,0,1-.037-.23c0-.1,0-.209-.006-.313a.292.292,0,0,0-.032-.149.646.646,0,0,0-.148-.108.729.729,0,0,1-.16-.133c-.047-.057-.095-.114-.137-.175a.689.689,0,0,1-.072-.2.407.407,0,0,1,.02-.223.179.179,0,0,1,.013-.033.1.1,0,0,1,.02-.018c.03-.026.061-.051.091-.075a.716.716,0,0,0,.124-.163.461.461,0,0,0,.053-.192.905.905,0,0,0,0-.213l.792-.4Z" transform="translate(-71.644 -98.925)" fill="#252525"/>
      <path id="path72" d="M93.106,129.887a2.234,2.234,0,0,0,.133.251c.052.088.1.176.155.266.04.073.079.146.118.22s.07.141.1.212a.757.757,0,0,1,.043.148c.008.059,0,.119.012.179s.028.11.039.165a1.024,1.024,0,0,0,.065.215.65.65,0,0,0,.1.167,1.094,1.094,0,0,0,.113.157,1.417,1.417,0,0,1,.121.155.875.875,0,0,1,.086.143.835.835,0,0,0,.108.132,1.265,1.265,0,0,0,.16.143c.044.037.092.067.136.1a.89.89,0,0,0,.17.127l.032.014a.513.513,0,0,1,.056.02c.028.011.054.025.082.036a.615.615,0,0,0,.153.035.892.892,0,0,1,.131.017.416.416,0,0,1,.124.069,1.118,1.118,0,0,1,.115.11c.029.036.049.079.075.117a.629.629,0,0,1,.055.1.828.828,0,0,0,.049.074,1.211,1.211,0,0,0,.083.1l-.746.449h0c-.028-.035-.056-.07-.082-.106-.042-.056-.083-.112-.119-.171-.024-.035-.043-.073-.068-.108a.6.6,0,0,0-.1-.092.222.222,0,0,0-.1-.035c-.043-.008-.085-.012-.128-.02a1.12,1.12,0,0,1-.162-.054,1.142,1.142,0,0,1-.171-.084c-.063-.042-.124-.087-.185-.131-.044-.035-.089-.069-.131-.107a2.059,2.059,0,0,1-.167-.154.76.76,0,0,1-.124-.148,1.073,1.073,0,0,0-.078-.136,1.445,1.445,0,0,0-.115-.149,1.283,1.283,0,0,1-.118-.161.845.845,0,0,1-.106-.189,1.805,1.805,0,0,1-.076-.225c-.015-.056-.029-.112-.041-.169a1.5,1.5,0,0,1-.018-.176,1.152,1.152,0,0,0-.029-.133,1.4,1.4,0,0,0-.1-.21c-.035-.075-.076-.147-.113-.221-.043-.091-.1-.176-.146-.266a1.8,1.8,0,0,0-.154-.233l.765-.448Z" transform="translate(-72.915 -101.293)" fill="#252525"/>
      <path id="path74" d="M98.789,137.25a.259.259,0,0,0,.052.15,1.118,1.118,0,0,1,.088.169,1.163,1.163,0,0,0,.058.136.408.408,0,0,0,.133.161.642.642,0,0,0,.293.065.224.224,0,0,0,.15-.033l-.69.536h0a.5.5,0,0,1-.164,0,.723.723,0,0,1-.322-.1.564.564,0,0,1-.163-.185.534.534,0,0,1-.062-.143.96.96,0,0,0-.078-.164.783.783,0,0,1-.087-.183l.792-.4Z" transform="translate(-75.882 -105.155)" fill="#252525"/>
      <path id="path76" d="M100.083,137.6a.924.924,0,0,0,.233.069,1.158,1.158,0,0,0,.2.013.344.344,0,0,1,.091.039c.012.008.022.019.033.028l.079.064c.065.056.14.1.206.156a1.711,1.711,0,0,1,.155.173,1.054,1.054,0,0,1,.109.132.259.259,0,0,0,.163.1.336.336,0,0,0,.207,0,.674.674,0,0,1,.213-.034c.1.018.207.023.308.046a1.237,1.237,0,0,1,.213.092c.032.015.113.025.129.057a.508.508,0,0,1,.023.074l-.818.345h0c.014.017.029.034.043.051h0l-.026-.01a.693.693,0,0,1-.079-.037.739.739,0,0,0-.2-.078.923.923,0,0,0-.294-.025c-.071.011-.14.029-.211.042a.528.528,0,0,1-.23-.039.433.433,0,0,1-.2-.141,1.185,1.185,0,0,0-.1-.127.806.806,0,0,0-.146-.159c-.065-.052-.126-.109-.193-.159a.311.311,0,0,0-.187-.079,1.16,1.16,0,0,1-.2-.033c-.084-.021-.167-.046-.252-.063l.732-.5Z" transform="translate(-76.592 -105.339)" fill="#252525"/>
      <path id="path78" d="M102.008,139.584a.151.151,0,0,0,.009.13.428.428,0,0,0,.1.08c.052.033.1.072.152.1l-.737.475h0c-.051-.035-.1-.07-.155-.1a.307.307,0,0,1-.172-.294l.8-.39Z" transform="translate(-77.567 -106.38)" fill="#252525"/>
      <path id="path80" d="M90.57,129.558a.957.957,0,0,0,.041.4c.04.142.095.279.141.419.03.086.062.172.093.257l-.762.418h0a2.683,2.683,0,0,0-.079-.264c-.044-.143-.091-.284-.133-.427-.012-.044-.034-.12-.044-.165-.018-.08-.029-.161-.045-.241l.788-.4Z" transform="translate(-71.572 -101.12)" fill="#252525"/>
      <path id="path82" d="M90.319,133.216a1.255,1.255,0,0,0-.029.274c0,.1,0,.2,0,.3,0,.034,0,.068,0,.1l-.781.4h0c0-.035,0-.071,0-.106q0-.154.006-.308c0-.09,0-.181,0-.271l.8-.391Z" transform="translate(-71.432 -103.039)" fill="#252525"/>
      <path id="path84" d="M90.831,135.491a.749.749,0,0,0,.089.1l-.745.456h0a.8.8,0,0,0-.1-.092l.756-.463Z" transform="translate(-71.726 -104.233)" fill="#252525"/>
      <path id="path86" d="M92.226,128.237a.7.7,0,0,0,.02.154.666.666,0,0,0,.093.147.45.45,0,0,0,.137.1.356.356,0,0,1,.135.1.465.465,0,0,1,.084.16.966.966,0,0,1,.015.172.3.3,0,0,1-.045.17.322.322,0,0,0-.045.122,1.248,1.248,0,0,0,0,.154.451.451,0,0,0,.051.166c0,.008.008.017.012.025.013.032.01.032.023.063a.76.76,0,0,0,.046.085.891.891,0,0,0,.115.154l-.731.445h0a1.046,1.046,0,0,1-.141-.161,1.127,1.127,0,0,1-.09-.183.837.837,0,0,1-.066-.189,1.278,1.278,0,0,1,0-.166.345.345,0,0,1,.031-.156.369.369,0,0,0,.063-.129.967.967,0,0,0-.006-.153.23.23,0,0,0-.061-.122.429.429,0,0,0-.121-.08.565.565,0,0,1-.147-.126.752.752,0,0,1-.115-.173.974.974,0,0,1-.035-.164l.785-.414Z" transform="translate(-72.443 -100.427)" fill="#252525"/>
      <path id="path88" d="M95.791,133.99c.047.049.1.1.148.141s.1.085.155.126a2.388,2.388,0,0,0,.186.154c.055.049.112.1.165.148a1.377,1.377,0,0,1,.13.159c.035.044.077.083.114.126s.063.1.1.141a.544.544,0,0,0,.176.132c.076.047.155.09.235.13a1.182,1.182,0,0,1,.225.147.51.51,0,0,0,.1.076l.069.028c.068.029.139.048.207.079a2.453,2.453,0,0,0,.3.16c.06.03.124.049.184.08a2.206,2.206,0,0,0,.265.092,4.578,4.578,0,0,0,.472.1l-.691.481h0c-.159-.04-.318-.075-.48-.1a1.438,1.438,0,0,1-.3-.089,1.257,1.257,0,0,1-.174-.089,1.96,1.96,0,0,0-.3-.15c-.071-.023-.139-.052-.207-.081a.58.58,0,0,1-.19-.123.962.962,0,0,0-.2-.138c-.083-.043-.17-.08-.25-.128a1.112,1.112,0,0,1-.191-.16,1.592,1.592,0,0,1-.1-.134c-.037-.044-.078-.085-.112-.131a1.139,1.139,0,0,0-.123-.148c-.053-.048-.1-.1-.159-.144s-.128-.1-.191-.151-.1-.086-.153-.131a1.411,1.411,0,0,0-.158-.132l.751-.47Z" transform="translate(-74.33 -103.445)" fill="#252525"/>
      <path id="path90" d="M87.734,122.09a.938.938,0,0,0,.17.162.476.476,0,0,1,.129.223.546.546,0,0,1,0,.216c-.008.059-.007.119-.016.177a.294.294,0,0,0,0,.18.408.408,0,0,0,.192.083.445.445,0,0,1,.183.166.607.607,0,0,1,.056.206,1.938,1.938,0,0,1,.022.2,1.9,1.9,0,0,0,.038.2,1.308,1.308,0,0,0,.06.158l-.718.4h0a1.484,1.484,0,0,1-.072-.167,1.639,1.639,0,0,1-.044-.2c-.01-.066-.007-.133-.02-.2a.741.741,0,0,0-.04-.18.272.272,0,0,0-.149-.116.421.421,0,0,1-.231-.143.314.314,0,0,1-.026-.222c0-.017.009-.033.012-.05.006-.041,0-.083.009-.123a.6.6,0,0,0,.01-.19.3.3,0,0,0-.1-.182,2.451,2.451,0,0,1-.184-.168l.719-.43Z" transform="translate(-70.121 -97.203)" fill="#252525"/>
      <path id="path92" d="M87.553,124.192c.017.08.042.158.059.239a1.286,1.286,0,0,1,.018.216c0,.067,0,.133,0,.2a.67.67,0,0,0,.014.188.541.541,0,0,0,.072.168l-.716.415h0a.636.636,0,0,1-.086-.187.553.553,0,0,1-.025-.207c0-.066,0-.133,0-.2a1.686,1.686,0,0,0-.009-.205,1.069,1.069,0,0,0-.061-.228l.734-.4Z" transform="translate(-70.018 -98.306)" fill="#252525"/>
      <path id="path94" d="M95.076,131.364a1.664,1.664,0,0,1,.029.171c.005.049,0,.1.01.148a.261.261,0,0,0,.06.135.661.661,0,0,0,.112.111.63.63,0,0,1,.156.1.365.365,0,0,1,.087.121l-.512.289h0a.288.288,0,0,0-.074-.1,1.319,1.319,0,0,0-.152-.1.7.7,0,0,1-.122-.124.4.4,0,0,1-.076-.16,1.218,1.218,0,0,1-.01-.15.579.579,0,0,0-.028-.159l.519-.283Z" transform="translate(-74.077 -102.068)" fill="#252525"/>
      <path id="path96" d="M95.765,133.294a.986.986,0,0,1,.172.1c.051.035.1.07.15.11a.877.877,0,0,1,.089.082l-.5.306h0a.792.792,0,0,0-.088-.077c-.046-.038-.095-.072-.143-.107a.512.512,0,0,0-.171-.084Z" transform="translate(-74.454 -103.08)" fill="#252525"/>
      <path id="path98" d="M95.155,133.5c-.029-.023-.06-.043-.09-.065l.493-.314h0a.783.783,0,0,0,.095.057Z" transform="translate(-74.344 -102.99)" fill="#252525"/>
      <path id="path116" d="M85.687,94.441c-.009.172-.008.344-.006.516s0,.368.011.552a4.623,4.623,0,0,0,.062.543c.035.154.07.309.1.465.019.171.044.341.068.511.01.073.015.147.023.22l-1.055.555h0c-.011-.074-.019-.147-.023-.221-.018-.169-.046-.336-.065-.5s-.064-.308-.093-.463c-.007-.028-.038-.158-.041-.185-.016-.123,0-.25-.026-.372a4.989,4.989,0,0,1-.019-.56c0-.17,0-.34-.006-.51l1.071-.546Z" transform="translate(-68.862 -82.699)" fill="#252525"/>
      <path id="path118" d="M88.468,95.762a.646.646,0,0,0,.166.412,2.774,2.774,0,0,1,.307.3.878.878,0,0,1,.1.417q.006.225,0,.451a1.639,1.639,0,0,1-.074.5,1.5,1.5,0,0,1-.057.169l-1.08.5h0a.932.932,0,0,0,.065-.156,1.5,1.5,0,0,0,.083-.467c0-.148,0-.3,0-.445a.778.778,0,0,0-.07-.354c-.087-.116-.217-.186-.3-.3a1.063,1.063,0,0,1-.216-.47l1.073-.547Z" transform="translate(-70.32 -83.392)" fill="#252525"/>
      <path id="path148" d="M83.185,113.174a.986.986,0,0,1,.083.295.877.877,0,0,1,0,.295.554.554,0,0,1-.122.251l-.025.027-.553.224h0l.029-.02a.48.48,0,0,0,.138-.222.8.8,0,0,0,.012-.279.65.65,0,0,0-.08-.27l.52-.3Z" transform="translate(-67.787 -92.526)" fill="#252525"/>
      <path id="path150" d="M82.333,113.989c-.028.1-.055.2-.088.3-.015.08-.1.167-.1.245.008.01.01.016.025.018a.625.625,0,0,0,.109-.008l.03-.008-.478.359h0l-.034,0c-.081,0-.14,0-.181-.084a.2.2,0,0,1-.009-.042c0-.08.083-.154.1-.232a2.752,2.752,0,0,0,.084-.283l.539-.265Z" transform="translate(-67.285 -92.953)" fill="#252525"/>
      <path id="path152" d="M84.642,119.054a.674.674,0,0,1,.064.2.505.505,0,0,1-.012.24.925.925,0,0,1-.69.37.491.491,0,0,1-.215-.085.5.5,0,0,1-.105-.094l.51-.311h0a.4.4,0,0,0,.1.079.307.307,0,0,0,.194.054.279.279,0,0,0,.064-.013c.009,0,.036-.016.028-.011-.808.478-.615.344-.427.254.055-.068.035-.123.03-.2a.417.417,0,0,0-.058-.181l.521-.3Z" transform="translate(-68.373 -95.61)" fill="#252525"/>
      <path id="path174" d="M83.946,126.249a1.067,1.067,0,0,1-.348-.036.731.731,0,0,1-.291-.278.966.966,0,0,0-.226-.232,1.242,1.242,0,0,0-.245-.159,1.6,1.6,0,0,1-.24-.184,1.083,1.083,0,0,0-.27-.155,1.952,1.952,0,0,1-.283-.167,3.1,3.1,0,0,1-.256-.212c-.069-.072-.135-.147-.2-.226a2.98,2.98,0,0,1-.161-.3l-.027-.057.254-.144h0l.027.057a1.666,1.666,0,0,0,.608.727,1.756,1.756,0,0,0,.279.162,1.121,1.121,0,0,1,.275.165,1.621,1.621,0,0,0,.237.179,1.221,1.221,0,0,1,.247.163.987.987,0,0,1,.228.24.65.65,0,0,0,.281.261,1.151,1.151,0,0,0,.346.028l-.239.174Z" transform="translate(-67.176 -98.254)" fill="#252525"/>
      <path id="path176" d="M79.84,121.192a2.08,2.08,0,0,0,.109.211l-.253.146h0c-.04-.071-.079-.142-.115-.214Z" transform="translate(-66.221 -96.732)" fill="#252525"/>
      <path id="path178" d="M78.423,109.369c-.1-.051-.207-.1-.3-.157a3.381,3.381,0,0,1-.323-.26,1.009,1.009,0,0,0-.3-.17.531.531,0,0,0-.306-.042,1.062,1.062,0,0,0-.223.058c-.076.031-.27.147.162-.1a.515.515,0,0,0-.176.337,2.045,2.045,0,0,0-.042.4,2.677,2.677,0,0,0,.009.344c.01.113.025.225.042.338a1.659,1.659,0,0,0,.055.294.88.88,0,0,0,.093.272c.056.1.115.193.17.291a1.136,1.136,0,0,1,.1.282,1.053,1.053,0,0,1,.016.141l-.261.135h0a1.134,1.134,0,0,0-.014-.137,1.109,1.109,0,0,0-.094-.275c-.054-.1-.114-.194-.171-.291a.848.848,0,0,1-.1-.278,1.533,1.533,0,0,1-.056-.3c-.017-.113-.033-.225-.042-.339a2.279,2.279,0,0,1-.01-.348,2.155,2.155,0,0,1,.041-.405.6.6,0,0,1,.165-.356,1.347,1.347,0,0,1,.57-.244.6.6,0,0,1,.314.055,1.016,1.016,0,0,1,.3.177,2.568,2.568,0,0,0,.32.256c.1.056.2.106.307.154l-.247.163Z" transform="translate(-64.682 -90.106)" fill="#252525"/>
      <path id="path180" d="M77.691,109.523a.476.476,0,0,0-.281-.065.528.528,0,0,0-.162.06.622.622,0,0,0-.058.034c.2-.107.251-.159.147-.063a.6.6,0,0,0-.153.292,1.588,1.588,0,0,0-.037.347c0,.124,0,.248,0,.372,0,.064,0,.034,0,.09l-.263.134h0c0-.056,0-.026,0-.091,0-.124,0-.249,0-.373a1.714,1.714,0,0,1,.033-.353.642.642,0,0,1,.148-.307c.126-.132.034-.043.35-.232a.574.574,0,0,1,.23-.084.587.587,0,0,1,.294.077l-.249.161Z" transform="translate(-64.806 -90.485)" fill="#252525"/>
      <path id="path182" d="M78.038,108.828a.459.459,0,0,1,.2.037.4.4,0,0,0,.071.037c.107,0,.086,0-.246.136-.008,0-.006-.016-.012-.023a.149.149,0,0,0-.085-.05.162.162,0,0,0-.035,0,.2.2,0,0,0-.036.016c.073-.04.145-.083.219-.121.013-.007-.023.018-.034.027-.121.1.053-.04-.065.056-.11.065-.266.237-.4.163a.276.276,0,0,1-.073-.07.25.25,0,0,1-.038-.263c.092-.054.182-.113.277-.161.029-.015.06.05.029.068-.091.054-.185.1-.278.154.019-.032-.147.057-.11.036.358-.2.233-.143.148-.056a.906.906,0,0,0-.188.236l-.267.12h0a.8.8,0,0,1,.183-.244.427.427,0,0,1,.065-.069,1.256,1.256,0,0,1,.4-.207c-.077.046-.156.089-.232.137-.005,0,.012,0,.018,0s.018,0,.013.006c-.08.024-.383.008.212-.136-.068.063-.027.163.018.228.029.031.052.059.1.06.011,0,.042-.011.033,0-.077.053-.318.187-.185.113.14-.1.282-.283.47-.252a.374.374,0,0,1,.038.016c.009.005.088.067.075.079a2.092,2.092,0,0,1-.246.176s-.01,0-.015-.006A.454.454,0,0,0,77.8,109l.239-.174Z" transform="translate(-64.93 -90.132)" fill="#252525"/>
      <path id="path184" d="M77.751,106.65c-.092.058-.178.124-.269.183l-.272.106h0c.091-.056.176-.122.264-.182Z" transform="translate(-64.978 -89.103)" fill="#252525"/>
    </g>
    <path id="Borda-logo" d="M30,0A30,30,0,1,1,0,30,30,30,0,0,1,30,0Z" transform="translate(42.61 57.554)" fill="none" stroke="#cda112" stroke-linecap="round" stroke-width="3"/>
  </g>
</svg>
